<svg width="77" height="95" viewBox="0 0 77 95" fill="none" xmlns="http://www.w3.org/2000/svg">
<circle cx="37" cy="58" r="37" fill="#46A358" fill-opacity="0.13"/>
<g clip-path="url(#clip0_85_155)">
<path d="M28.1292 46.3569C40.7022 48.0205 53.3917 48.282 66.023 47.1369C66.8794 47.0602 66.8884 45.7077 66.023 45.7844C53.3917 46.9295 40.7022 46.668 28.1292 45.0044C27.2773 44.8917 27.2818 46.2487 28.1292 46.3569Z" fill="#727272"/>
<path d="M31.0304 92.0306C36.4649 92.7249 41.9353 93.0631 47.4147 92.9864C52.2349 92.9188 57.925 93.1307 62.4448 91.2237C63.2295 90.89 62.8843 89.5826 62.0861 89.9208C57.4497 91.8774 51.5085 91.6114 46.5493 91.6429C41.3569 91.679 36.1779 91.3364 31.0259 90.6782C30.1739 90.57 30.1784 91.9224 31.0304 92.0306Z" fill="#727272"/>
<path d="M27.6046 45.3156C21.3316 51.1673 18.408 59.8909 19.0986 68.3981C19.4528 72.7937 20.6904 77.0676 22.5512 81.053C24.2461 84.6867 26.7437 89.8937 30.4923 91.7827C31.2635 92.1704 31.9451 91.0073 31.1693 90.6151C27.6808 88.8568 25.3088 83.794 23.7125 80.3722C21.8562 76.3823 20.641 72.0499 20.3899 67.6452C19.9416 59.7061 22.7126 51.7219 28.5597 46.2713C29.1964 45.6807 28.2413 44.725 27.6046 45.3156Z" fill="#727272"/>
<path d="M65.5477 46.952C72.166 51.1222 72.7893 60.1163 72.6279 67.1989C72.4485 75.0974 71.4755 87.6125 62.0861 89.9208C61.2476 90.1281 61.6018 91.431 62.4448 91.2237C72.2467 88.8162 73.6547 76.3958 73.9506 68.0374C74.2241 60.2155 73.5336 50.3874 66.2248 45.7844C65.4894 45.3245 64.8168 46.4922 65.5477 46.952Z" fill="#727272"/>
<path d="M32.5773 46.3659C27.6405 51.7083 25.4613 60.6302 26.2953 67.7849C26.7795 71.9461 28.0889 76.0757 29.0619 80.1377C30.0394 84.2087 31.0483 88.2481 33.2633 91.8413C33.7207 92.5806 34.882 91.8999 34.4247 91.1605C32.3441 87.7883 31.3756 84.0193 30.4564 80.2008C29.5686 76.522 28.5328 72.8387 27.8467 69.1194C26.5464 62.0368 28.5821 52.6776 33.5279 47.3217C34.1153 46.6815 33.1647 45.7257 32.5773 46.3659Z" fill="#727272"/>
<path d="M39.2404 46.9295C35.5636 53.4395 33.631 60.8331 33.7297 68.326C33.779 71.9236 34.2902 75.5257 35.2677 78.9881C36.4828 83.2845 38.3302 87.3601 39.1373 91.7737C39.2942 92.6303 40.5901 92.2651 40.4332 91.413C39.7292 87.5494 38.236 83.9518 37.0478 80.2279C35.8954 76.6122 35.2049 72.8839 35.0883 69.0834C34.8551 61.568 36.7115 54.1428 40.4018 47.6103C40.8322 46.8529 39.6709 46.1721 39.2404 46.9295Z" fill="#727272"/>
<path d="M43.2042 48.2235C44.4822 55.7343 42.9307 63.2587 43.0607 70.8011C43.119 74.2454 43.8858 77.4508 44.3342 80.8411C44.8005 84.3621 44.0024 87.9823 43.5674 91.4762C43.4598 92.3373 44.805 92.3283 44.9126 91.4762C45.352 87.9507 46.1457 84.3035 45.6794 80.7509C45.2041 77.1172 44.4014 73.6729 44.397 69.9761C44.388 62.5779 45.7511 55.2339 44.5001 47.8673C44.3521 47.0107 43.0563 47.3714 43.2042 48.2235Z" fill="#727272"/>
<path d="M48.2487 47.5967C50.6117 54.3817 50.8987 61.5409 51.1363 68.6595C51.3964 76.3913 51.0108 84.0013 49.5759 91.6113C49.4145 92.4634 50.7104 92.8286 50.8718 91.972C52.3291 84.2447 52.7461 76.5085 52.4815 68.6595C52.2394 61.4237 51.9434 54.1292 49.5445 47.236C49.262 46.4245 47.9617 46.7762 48.2487 47.5967Z" fill="#727272"/>
<path d="M53.9074 47.6284C54.4051 49.1567 55.4813 50.1756 56.3063 51.519C57.2479 53.0519 57.7636 54.7876 58.0416 56.5548C58.6469 60.4139 58.36 64.4534 58.351 68.3441C58.342 72.5774 58.6649 77.0541 57.5753 81.1882C56.6157 84.8174 54.4141 87.9462 53.6787 91.652C53.5083 92.5041 54.8042 92.8648 54.9746 92.0127C55.7638 88.0454 58.203 84.6867 59.0639 80.7374C59.9473 76.698 59.6872 72.4511 59.6962 68.3441C59.7051 64.5481 59.9338 60.6664 59.4361 56.8929C59.2164 55.2249 58.8397 53.5748 58.1223 52.051C57.3242 50.3514 55.7862 49.0575 55.2078 47.2722C54.9342 46.4472 53.6339 46.7988 53.9074 47.6284Z" fill="#727272"/>
<path d="M60.4495 47.4163C63.1219 49.941 64.4088 53.9714 65.3728 57.4518C66.3772 61.0765 66.0409 64.9447 65.8167 68.655C65.3639 76.1839 64.0994 83.7038 60.5077 90.4121C60.0952 91.1785 61.2566 91.8638 61.6691 91.0929C65.4984 83.9382 66.7763 75.8954 67.2023 67.8706C67.4175 63.8311 67.5924 59.8863 66.3324 55.9957C65.2383 52.6189 64.0321 48.9492 61.4001 46.4561C60.7723 45.8655 59.8172 46.8212 60.4495 47.4163Z" fill="#727272"/>
<path d="M32.4697 50.7977C32.3307 51.1538 32.1783 51.5055 32.0124 51.8526C31.8016 52.2899 32.0482 52.8895 32.5953 52.8715C32.9854 52.858 33.2948 52.6822 33.5728 52.4162C33.6625 52.3305 33.7521 52.2403 33.8373 52.1547C33.9494 52.042 33.8015 52.2223 33.8867 52.1186C33.8687 52.1457 33.7746 52.1367 33.8598 52.1457C33.6445 51.8616 33.4293 51.5731 33.2096 51.2891C33.1513 51.5911 33.0885 51.8932 33.0302 52.1998C32.9585 52.5559 33.1334 52.9301 33.501 53.0338C33.8329 53.124 34.2588 52.9211 34.3306 52.5604C34.3889 52.2584 34.4516 51.9563 34.5099 51.6498C34.5996 51.1899 34.3171 50.8383 33.8598 50.7932C33.4876 50.7571 33.1513 50.9555 32.8867 51.1989C32.7926 51.2846 32.7119 51.3747 32.6177 51.4604C32.5863 51.4875 32.5594 51.5145 32.528 51.5416C32.5415 51.528 32.5549 51.519 32.5684 51.5055C32.5011 51.5416 32.5011 51.5461 32.5774 51.5145C32.5011 51.5325 32.5056 51.537 32.5908 51.5145C32.7836 51.8526 32.9764 52.1908 33.1737 52.5334C33.3889 52.0826 33.5862 51.6227 33.7656 51.1583C33.8956 50.8157 33.6221 50.4145 33.2948 50.3243C32.9181 50.2206 32.6043 50.4551 32.4697 50.7977Z" fill="#727272"/>
<path d="M29.1381 58.8901C29.0753 59.2688 29.0125 59.6475 28.9498 60.0217C28.9004 60.3237 28.9811 60.6213 29.2592 60.7836C29.5058 60.9279 29.8779 60.9008 30.0752 60.6799C30.2053 60.5311 30.3353 60.3823 30.4653 60.2336C30.5505 60.1344 30.6716 59.9496 30.7747 59.8955C30.6626 59.927 30.5505 59.9586 30.4339 59.9856C30.4564 59.9811 30.4833 59.9811 30.5057 59.9766C30.3936 59.945 30.2815 59.9135 30.1649 59.8864C30.1828 59.9 30.2008 59.9135 30.2187 59.927C30.1066 59.7332 29.9945 59.5393 29.8869 59.3409C29.9228 59.7286 29.8152 60.1614 29.7703 60.5537C29.7075 61.1172 30.3757 61.3246 30.7837 61.1397C31.3128 60.8918 31.667 60.4364 31.8554 59.8909C31.4787 59.9901 31.1065 60.0893 30.7299 60.1885C30.7164 60.1028 30.703 60.0172 30.6895 59.9315C30.4698 60.7746 31.7702 61.1352 31.9854 60.2922C32.084 59.909 31.9944 59.4897 31.6805 59.2327C31.2769 58.9036 30.7344 59.0208 30.555 59.5303C30.4743 59.7557 30.3084 59.8729 30.1021 59.9721C30.4384 60.1659 30.7747 60.3598 31.1155 60.5582C31.1828 59.9541 31.5056 58.8811 30.6806 58.6512C29.9856 58.4573 29.4968 59.2868 29.1202 59.7241C29.4968 59.945 29.869 60.1614 30.2456 60.3823C30.3084 60.0036 30.3712 59.625 30.4339 59.2508C30.4922 58.8901 30.3398 58.5204 29.9631 58.4167C29.6448 58.3311 29.1964 58.5294 29.1381 58.8901Z" fill="#727272"/>
<path d="M28.5597 67.0366C28.6046 67.5686 28.6539 68.1005 28.6987 68.628C28.766 69.3809 29.7749 69.5567 30.0215 68.8083C30.156 68.3936 30.3443 68.0194 30.582 67.6497C30.174 67.5956 29.7614 67.5415 29.3534 67.4874C29.5103 67.8796 29.6179 68.2809 29.6762 68.7047C29.7435 69.1825 30.3219 69.2637 30.6627 69.1104C30.8331 69.0338 30.9721 68.885 31.0618 68.7227C31.1021 68.6506 31.1335 68.5649 31.1604 68.4883C31.1739 68.4477 31.1828 68.4071 31.1963 68.3665C31.2187 68.2989 31.2097 68.3034 31.1784 68.3801C31.0797 68.4387 30.9811 68.4973 30.8824 68.5559C30.9048 68.5469 30.9317 68.5424 30.9542 68.5333C30.8331 68.5333 30.7165 68.5333 30.5954 68.5333C30.5865 68.5288 30.5775 68.5243 30.573 68.5153C30.4923 68.4342 30.4116 68.353 30.3309 68.2719C30.3443 68.2899 30.3533 68.3079 30.3668 68.326C30.3443 68.1501 30.3219 67.9788 30.2995 67.803C30.295 67.8255 30.295 67.8481 30.2905 67.8661C30.2412 68.2268 30.3757 68.5919 30.7614 68.7001C31.0752 68.7858 31.5416 68.5919 31.5909 68.2268C31.6312 67.9337 31.6088 67.6677 31.3936 67.4468C31.2142 67.2665 30.9407 67.1808 30.6896 67.2079C30.4295 67.2394 30.2009 67.3927 30.0619 67.6136C30.0036 67.7083 29.9229 67.8391 29.9184 67.9473C29.9139 68.105 29.8466 67.9923 29.9901 67.9292C30.3174 68.0645 30.6493 68.1997 30.9766 68.335C30.9183 67.9157 30.8107 67.5145 30.6537 67.1177C30.4385 66.5857 29.757 66.4325 29.4251 66.9554C29.1292 67.4198 28.9005 67.9157 28.7301 68.4342C29.1696 68.4928 29.609 68.5559 30.0529 68.6145C30.0081 68.0825 29.9587 67.5505 29.9139 67.023C29.8825 66.6579 29.6269 66.3468 29.2413 66.3468C28.896 66.3603 28.5284 66.6714 28.5597 67.0366Z" fill="#727272"/>
<path d="M30.1784 76.5762C30.2233 77.3561 30.6134 78.0369 31.2905 78.4336C31.7389 78.6906 32.2949 78.3615 32.3038 77.8475C32.3083 77.4508 32.398 77.0856 32.5505 76.7204C32.1738 76.8196 31.8016 76.9188 31.425 77.018C31.6088 77.2434 31.8061 77.4418 32.0258 77.6266C32.3845 77.9287 33.0392 77.8701 33.1513 77.3291C33.1782 77.2073 33.2096 77.1036 33.2499 76.9909C32.8733 77.0901 32.5011 77.1893 32.1245 77.2885C32.1648 77.2659 32.1873 77.293 32.1828 77.3651C32.3263 77.7033 32.8195 77.7754 33.102 77.6086C33.4472 77.4057 33.4876 77.0225 33.3441 76.6844C33.2858 76.5491 33.1917 76.4274 33.0751 76.3327C32.6581 76.0036 32.1469 76.1253 31.9496 76.6303C31.9048 76.743 31.8734 76.8512 31.851 76.9684C32.2276 76.8692 32.5998 76.77 32.9764 76.6708C32.7567 76.486 32.5594 76.2831 32.3756 76.0622C32.0169 75.6204 31.425 75.9495 31.2501 76.3598C31.0528 76.8331 30.9631 77.3336 30.9542 77.8475C31.2905 77.6537 31.6268 77.4598 31.9675 77.2614C31.7075 77.1127 31.5371 76.8782 31.5191 76.5717C31.4743 75.7151 30.1291 75.7061 30.1784 76.5762Z" fill="#727272"/>
<path d="M32.9494 85.8497C33.1064 86.2555 33.2947 86.6297 33.5503 86.9858C33.9494 87.5358 34.743 87.333 34.8058 86.6432C34.8103 86.6026 34.882 86.1022 34.8551 86.0796C34.6623 86.2014 34.474 86.3231 34.2812 86.4448C34.326 86.5079 34.3664 86.5665 34.4157 86.6251C34.5861 86.8415 34.7968 87.0264 35.0703 87.103C35.2811 87.1571 35.5277 87.1301 35.7115 87.0129C35.8326 86.9317 35.9178 86.837 35.9806 86.7063C36.003 86.6522 36.0254 86.5981 36.0478 86.544C36.151 86.2194 35.9537 86.1653 35.4604 86.3817C35.7295 87.2022 37.0298 86.8506 36.7563 86.021C36.568 85.453 36.0209 85.0833 35.4246 85.3087C35.1824 85.4034 34.9717 85.5837 34.8551 85.8182C34.8192 85.8903 34.6892 86.2014 34.734 86.2915C34.9941 86.1428 35.2497 85.9895 35.5098 85.8407C35.4739 85.7956 35.438 85.755 35.4066 85.71C35.1914 85.2727 34.5681 85.0247 34.1197 85.187C33.4875 85.4124 33.5144 86.0887 33.4651 86.6477C33.8821 86.535 34.2991 86.4223 34.7206 86.3051C34.5368 86.0526 34.3708 85.7866 34.2543 85.4936C33.9314 84.6911 32.6311 85.0382 32.9494 85.8497Z" fill="#727272"/>
<path d="M40.1372 50.9825C39.6529 51.3476 39.2494 51.7804 38.9848 52.335C38.6396 53.0563 39.4422 53.6243 40.043 53.1555C40.1865 53.0428 40.33 52.9301 40.4735 52.8174C40.5363 52.7678 40.5991 52.7182 40.6663 52.6686C40.6977 52.6415 40.7291 52.619 40.7605 52.5919C40.8726 52.5108 40.8143 52.5243 40.5856 52.628C40.4735 52.5965 40.3614 52.5649 40.2448 52.5378C40.2583 52.5469 40.2717 52.5559 40.2852 52.5649C40.2045 52.4837 40.1238 52.4026 40.043 52.3214C40.0296 52.2628 40.0117 52.2087 39.9982 52.1501C40.0027 52.087 40.0027 52.078 39.9892 52.1321C39.9578 52.1546 39.9489 52.3079 39.9489 52.3305C39.9175 52.5378 39.9354 52.7407 40.043 52.9301C40.1417 53.1014 40.3166 53.2547 40.5094 53.3043C40.5901 53.3268 40.6932 53.3358 40.7784 53.3358C40.8591 53.3358 40.9309 53.3223 41.0026 53.2952C41.0968 53.2682 41.0654 53.2592 40.904 53.2682C40.8053 53.2096 40.7067 53.151 40.608 53.0924C40.6215 53.1059 40.6349 53.1194 40.6484 53.1329C40.5901 53.0338 40.5318 52.9346 40.4735 52.8354C40.478 52.8489 40.4825 52.867 40.487 52.8805C40.5094 52.7047 40.5318 52.5333 40.5542 52.3575C40.5452 52.371 40.5408 52.3846 40.5318 52.3981C40.1238 53.1645 41.2851 53.8498 41.6931 53.0788C41.868 52.7542 41.8277 52.3891 41.5541 52.1321C41.4106 51.9968 41.2178 51.9157 41.0205 51.9112C40.9084 51.9067 40.7784 51.9788 40.6798 51.9698C40.7919 52.0014 40.904 52.0329 41.0205 52.06C41.0026 52.0464 40.9847 52.0329 40.9712 52.0239C41.0519 52.105 41.1326 52.1862 41.2134 52.2673C41.2044 52.2493 41.1954 52.2313 41.1864 52.2132C41.2178 52.326 41.2492 52.4387 41.2761 52.5559C41.2672 52.4702 41.2806 52.5153 41.312 52.3891C41.3479 52.2313 41.3524 52.06 41.3165 51.8977C41.2403 51.5731 40.9981 51.3386 40.6753 51.28C40.339 51.2169 40.1103 51.3927 39.8547 51.5911C39.5991 51.7895 39.3435 51.9923 39.088 52.1907C39.4422 52.4657 39.7919 52.7362 40.1462 53.0112C40.3076 52.6776 40.5139 52.371 40.8143 52.1456C41.1057 51.9292 41.2537 51.5595 41.0564 51.2214C40.8905 50.9374 40.4331 50.7661 40.1372 50.9825Z" fill="#727272"/>
<path d="M37.5052 58.5925C37.3931 59.1335 37.2855 59.6745 37.1734 60.22C37.0344 60.9098 37.7787 61.3065 38.2988 60.8782C38.4513 60.752 38.5858 60.5942 38.6844 60.4229C38.7517 60.3057 38.8324 60.0667 38.8683 60.0081C38.7876 60.0893 38.7069 60.1704 38.6262 60.2516C38.6486 60.2381 38.6665 60.2245 38.6889 60.2065C38.5768 60.2381 38.4647 60.2696 38.3482 60.2967C38.3751 60.2922 38.402 60.2922 38.4289 60.2876C38.3168 60.2561 38.2047 60.2245 38.0881 60.1975C37.9805 60.1479 37.976 59.9721 38.0074 60.202C38.0163 60.2606 38.0298 60.3102 38.0477 60.3643C38.1105 60.5672 38.2226 60.7475 38.393 60.8737C38.5499 60.9909 38.7338 61.0541 38.9311 61.0495C39.0521 61.045 39.1642 61.0135 39.2718 60.9594C39.3301 60.9368 39.3795 60.9053 39.4243 60.8647C39.5409 60.7836 39.5095 60.7881 39.3346 60.8692C39.2225 60.8377 39.1104 60.8061 38.9938 60.7791C39.0118 60.7881 39.0163 60.7971 39.0297 60.8331C39.3167 61.6492 40.617 61.2975 40.3256 60.4725C40.2 60.1163 40.0162 59.7872 39.6709 59.6114C39.4916 59.5167 39.2674 59.4897 39.0701 59.5348C38.8728 59.5798 38.7562 59.7106 38.5858 59.7917C38.6979 59.7602 38.81 59.7286 38.9266 59.7016C38.9042 59.7016 38.8773 59.7016 38.8548 59.7016C38.9669 59.7331 39.079 59.7647 39.1956 59.7917C39.3167 60.0036 39.3526 60.0352 39.3032 59.8864C39.2943 59.8278 39.2853 59.7692 39.2763 59.7106C39.2449 59.5934 39.1956 59.4716 39.1328 59.3725C38.9669 59.111 38.6934 58.9397 38.384 58.9442C38.0791 58.9487 37.8011 59.1245 37.6576 59.3905C37.5366 59.6159 37.5455 59.7512 37.3393 59.9225C37.7159 60.1434 38.0881 60.3598 38.4647 60.5807C38.5768 60.0397 38.6844 59.4987 38.7965 58.9577C38.9759 58.1011 37.68 57.7404 37.5052 58.5925Z" fill="#727272"/>
<path d="M36.985 65.5038C36.846 66.2297 36.7563 66.96 36.7339 67.6949C36.716 68.2088 37.3168 68.5334 37.7473 68.281C37.9446 68.1637 38.0881 68.0059 38.1957 67.8031C38.236 67.7264 38.3526 67.5506 38.3302 67.483C38.3257 67.474 38.2854 67.5326 38.3033 67.5236C38.1912 67.5551 38.0791 67.5867 37.9625 67.6137C37.9535 67.6182 37.9401 67.6182 37.9311 67.6227C37.8504 67.5416 37.7697 67.4604 37.689 67.3793C37.7652 67.4785 37.7563 67.4695 37.7652 67.5731C37.8145 68.1277 38.4782 68.4974 38.9131 68.051C38.9624 67.9969 39.0118 67.9473 39.0656 67.8977C38.9714 67.9428 38.8728 67.9338 38.7786 67.8797C38.7203 67.7805 38.662 67.6813 38.6037 67.5822C38.6127 67.6092 38.6217 67.6363 38.6351 67.6633C38.7607 68.0059 39.0925 68.2404 39.4646 68.1367C39.792 68.0465 40.061 67.6498 39.9354 67.3026C39.5857 66.3469 38.5678 66.4686 37.9625 67.0953C38.3436 67.2531 38.7293 67.4154 39.1104 67.5731C39.0566 66.9194 38.7337 66.2116 37.9625 66.2612C37.6486 66.2793 37.3706 66.4641 37.2047 66.7301C37.1464 66.8248 37.1061 66.933 37.0612 67.0367C37.0119 67.1494 36.9267 67.1899 37.0657 67.1088C37.402 67.3026 37.7383 67.4965 38.0791 67.6949C38.097 67.0772 38.1643 66.4686 38.2809 65.86C38.4468 65.0124 37.1509 64.6518 36.985 65.5038Z" fill="#727272"/>
<path d="M37.6532 73.2265C37.8056 73.8306 37.9895 74.4212 38.2047 75.0028C38.3796 75.4762 38.9401 75.6746 39.3302 75.3004C39.5006 75.1336 39.6171 74.9397 39.6754 74.7053C39.6979 74.6106 39.7158 74.4979 39.7203 74.4032C39.7337 74.1147 39.7023 74.3536 39.7292 74.3401C39.6171 74.3716 39.505 74.4032 39.3885 74.4303C39.4198 74.4303 39.4468 74.4257 39.4781 74.4257C39.366 74.3942 39.2539 74.3626 39.1374 74.3356C39.0477 74.295 39.0746 74.2544 39.1463 74.3807C39.1822 74.4438 39.2136 74.4979 39.2584 74.5565C39.3974 74.7368 39.5678 74.8585 39.7965 74.8901C39.9983 74.9172 40.1911 74.8676 40.3615 74.7503C40.4556 74.6827 40.5408 74.6061 40.6036 74.5069C40.6305 74.4528 40.6574 74.3987 40.6798 74.3446C40.7695 74.1688 40.6933 74.2139 40.4512 74.4844C40.3301 74.4844 40.2135 74.4844 40.0924 74.4844C40.0386 74.4393 39.9893 74.3897 39.9355 74.3446C39.9041 74.2319 39.8727 74.1192 39.8458 74.002C39.8458 74.029 39.8458 74.0561 39.8458 74.0831C39.8324 74.9532 41.1776 74.9532 41.191 74.0831C41.2 73.6278 40.8861 73.2716 40.4512 73.1814C40.218 73.1319 39.9848 73.1814 39.792 73.3212C39.6979 73.3888 39.6216 73.4655 39.5589 73.5601C39.5454 73.5872 39.5319 73.6188 39.514 73.6458C39.3974 73.8712 39.4288 73.8667 39.6127 73.6323C39.7248 73.6007 39.8369 73.5692 39.9534 73.5421C39.931 73.5466 39.9086 73.5466 39.8862 73.5511C39.9983 73.5827 40.1104 73.6142 40.227 73.6413C40.4198 73.736 40.3211 73.7044 40.2494 73.5782C40.1956 73.479 40.1238 73.3843 40.0431 73.3122C39.7875 73.0823 39.4512 73.0237 39.1329 73.1364C38.8773 73.2265 38.6845 73.4249 38.5544 73.6548C38.4827 73.7856 38.4468 73.9163 38.4199 74.0606C38.4065 74.1237 38.4199 74.304 38.3796 74.3446C38.7562 74.4438 39.1284 74.543 39.505 74.6421C39.2898 74.0606 39.106 73.4655 38.9535 72.8659C38.7338 72.0273 37.4379 72.3835 37.6532 73.2265Z" fill="#727272"/>
<path d="M38.3302 79.687C38.5724 80.4038 38.8818 81.0936 39.2629 81.7428C39.5364 82.2071 40.1418 82.153 40.4242 81.7428C40.5005 81.63 40.5543 81.5128 40.5901 81.3821C40.5946 81.3415 40.5991 81.3054 40.6081 81.2649C40.6798 81.0034 40.617 81.0124 40.4108 81.2964C40.2897 81.2964 40.1731 81.2964 40.0521 81.2964C39.8637 81.2378 39.9489 81.2513 40.0476 81.3595C40.1193 81.4362 40.209 81.5173 40.3032 81.5714C40.496 81.6796 40.7247 81.7202 40.9444 81.7022C41.4466 81.6661 41.7918 81.3325 41.9577 80.8772C42.2582 80.0611 40.9578 79.705 40.6619 80.5165C40.7471 80.2911 40.9578 80.4173 40.922 80.3091C40.8951 80.2325 40.7381 80.1288 40.6664 80.0882C40.4467 79.962 40.1821 79.9349 39.9445 80.0161C39.7247 80.0882 39.5499 80.255 39.4378 80.4579C39.3391 80.6382 39.366 80.9087 39.2584 81.062C39.644 81.062 40.0341 81.062 40.4198 81.062C40.0924 80.5075 39.8279 79.9394 39.6216 79.3308C39.3526 78.5103 38.0522 78.8619 38.3302 79.687Z" fill="#727272"/>
<path d="M40.1014 87.4007C40.1058 87.7749 40.1597 88.149 40.2762 88.5007C40.3614 88.7577 40.5632 88.947 40.8367 88.9831C41.0833 89.0146 41.3927 88.9019 41.5048 88.6585C41.5811 88.4962 41.6573 88.3339 41.7335 88.1761C41.7694 88.0995 41.8053 88.0273 41.8367 87.9507C41.8546 87.9146 41.8725 87.874 41.8905 87.838C41.9263 87.7703 41.9263 87.7703 41.8905 87.838C41.7918 87.8966 41.6932 87.9552 41.5945 88.0138C41.608 88.0093 41.6259 88.0003 41.6394 87.9958C41.5183 87.9958 41.4017 87.9958 41.2806 87.9958C41.2582 87.9867 41.2313 87.9732 41.2089 87.9642C41.1282 87.8831 41.0475 87.8019 40.9668 87.7208C40.8995 87.608 40.9623 87.7027 40.9892 87.7794C41.0116 87.8515 41.0385 87.9191 41.0609 87.9913C41.1103 88.131 41.1596 88.2753 41.2044 88.415C41.321 88.7622 41.6663 88.9876 42.0339 88.8884C42.3658 88.7982 42.6213 88.4015 42.5048 88.0544C42.3119 87.4953 42.1505 86.5756 41.3703 86.6793C40.765 86.7605 40.5632 87.4998 40.339 87.9777C40.7471 88.0318 41.1596 88.0859 41.5676 88.14C41.4824 87.874 41.4421 87.6576 41.4376 87.3962C41.4331 87.0445 41.1327 86.7019 40.765 86.7199C40.4108 86.7379 40.0969 87.022 40.1014 87.4007Z" fill="#727272"/>
<path d="M46.2802 88.2211C46.2443 88.5277 46.2085 88.8388 46.1726 89.1453C46.1367 89.4339 46.4058 89.7269 46.6658 89.799C46.9707 89.8847 47.2532 89.7359 47.4236 89.488C47.5447 89.3121 47.6658 89.1408 47.7868 88.965C47.8406 88.8838 47.8989 88.8072 47.9527 88.7261C47.9751 88.6945 47.9976 88.6629 48.02 88.6314C48.1186 88.4961 48.1052 88.5051 47.9841 88.6584C47.872 88.69 47.7599 88.7215 47.6433 88.7486C47.6658 88.7486 47.6837 88.7486 47.7061 88.7486C47.594 88.717 47.4819 88.6855 47.3653 88.6584C47.2308 88.424 47.186 88.3789 47.2308 88.5232C47.2443 88.5773 47.2532 88.6359 47.2667 88.69C47.2891 88.8027 47.3115 88.9109 47.3384 89.0236C47.3878 89.258 47.4102 89.533 47.5312 89.7449C47.6478 89.9433 47.8406 90.1146 48.0648 90.1777C48.4101 90.2724 48.6926 90.0966 48.8944 89.8261C49.1141 89.533 48.9392 89.0687 48.6522 88.9019C48.307 88.699 47.9527 88.8523 47.733 89.1453C47.724 89.1589 47.7151 89.1724 47.7061 89.1814C47.8989 89.0687 48.0917 88.956 48.289 88.8478C48.2756 88.8478 48.2621 88.8523 48.2487 88.8523C48.3608 88.8838 48.4729 88.9154 48.5894 88.9425C48.706 89.0011 48.7778 89.3302 48.7105 88.9966C48.6926 88.9019 48.6702 88.8117 48.6522 88.717C48.6164 88.5502 48.585 88.3834 48.5491 88.2166C48.4684 87.865 48.2576 87.5223 47.89 87.4186C47.4819 87.3059 47.1591 87.5404 46.9304 87.8469C46.7017 88.158 46.4865 88.4781 46.2668 88.7937C46.6838 88.9064 47.1008 89.0191 47.5223 89.1363C47.5581 88.8297 47.594 88.5187 47.6299 88.2121C47.6702 87.8469 47.2891 87.5359 46.9573 87.5359C46.5582 87.5449 46.3251 87.8605 46.2802 88.2211Z" fill="#727272"/>
<path d="M46.9259 75.8729C46.76 76.5942 46.6793 77.3336 46.6927 78.0729C46.7017 78.7086 47.6344 79.0377 47.9482 78.4156C48.0828 78.1451 48.2173 77.8791 48.3518 77.6086C48.4504 77.4102 48.5222 77.1623 48.7015 77.0225C48.6029 77.0811 48.5042 77.1397 48.4056 77.1983C48.4056 77.1938 48.4056 77.1893 48.4101 77.1848C48.1948 77.018 47.9796 76.8557 47.7599 76.6889C47.8451 77.009 47.9303 77.3291 48.0155 77.6492C48.1231 78.0504 48.6388 78.2938 49.002 78.0549C49.0647 78.0143 49.1275 77.9692 49.1903 77.9287C49.9077 77.4508 49.2351 76.2786 48.5132 76.761C48.4504 76.8016 48.3877 76.8467 48.3249 76.8872C48.6522 77.0225 48.984 77.1577 49.3114 77.293C49.2262 76.9729 49.141 76.6528 49.0558 76.3327C48.9795 76.0487 48.7015 75.8323 48.4056 75.8368C47.4595 75.8548 47.1366 77.036 46.7869 77.7393C47.2039 77.852 47.6209 77.9647 48.0424 78.0819C48.0334 77.4553 48.0872 76.8512 48.2262 76.2381C48.4146 75.386 47.1187 75.0253 46.9259 75.8729Z" fill="#727272"/>
<path d="M45.6435 65.7562C45.6749 66.2882 45.7018 66.8156 45.7332 67.3476C45.7691 68.0149 46.621 68.2718 46.9887 67.6903C47.2488 67.2755 47.5089 66.8652 47.7689 66.4505C47.3833 66.4505 46.9932 66.4505 46.6076 66.4505C46.7017 66.6128 46.76 66.7615 46.769 66.9509C46.8004 67.546 47.4775 67.83 47.9169 67.4288C48.2577 67.1222 48.4774 66.7525 48.6433 66.3242C48.316 66.4595 47.9842 66.5947 47.6568 66.73C47.6568 66.739 47.6568 66.748 47.6523 66.7525C47.5941 66.6533 47.5358 66.5542 47.4775 66.455C47.4909 66.482 47.4999 66.5136 47.5133 66.5406C47.6523 66.8788 47.9573 67.1177 48.3429 67.014C48.6567 66.9284 48.9527 66.5226 48.8137 66.18C48.6971 65.905 48.576 65.7382 48.3339 65.5578C47.9528 65.2738 47.4864 65.5984 47.3474 65.9636C47.2667 66.171 47.1277 66.3242 46.9663 66.473C47.3474 66.6308 47.7331 66.7931 48.1142 66.9509C48.0918 66.5271 47.9842 66.1349 47.7689 65.7697C47.5044 65.3234 46.8766 65.3414 46.6076 65.7697C46.3475 66.1845 46.0874 66.5947 45.8274 67.0095C46.2444 67.1222 46.6614 67.2349 47.0829 67.3521C47.0515 66.8202 47.0246 66.2927 46.9932 65.7607C46.9394 64.8906 45.5942 64.8861 45.6435 65.7562Z" fill="#727272"/>
<path d="M46.0067 56.8162C45.9664 57.1589 45.9484 57.5015 45.9574 57.8441C45.9709 58.313 46.5358 58.7458 46.9708 58.4302C47.195 58.2679 47.334 58.0831 47.4102 57.8171C47.4281 57.754 47.4461 57.6818 47.455 57.6187C47.464 57.5601 47.4999 57.5556 47.4506 57.6007C47.2174 57.8171 46.9708 58.1282 46.5986 57.6773C46.639 57.7269 46.6255 57.7224 46.5986 57.6638C46.63 57.7314 46.6524 57.8081 46.6838 57.8757C46.7376 57.9929 46.8183 58.0966 46.908 58.1868C47.186 58.4618 47.5985 58.5159 47.9348 58.322C48.2532 58.1417 48.3563 57.7089 48.177 57.3978C47.9886 57.0777 47.5761 56.974 47.2577 57.1544C47.2443 57.1634 47.2264 57.1724 47.2129 57.1814C47.325 57.1499 47.4371 57.1183 47.5537 57.0912C47.5896 57.0867 47.9124 57.2671 47.8855 57.2761C47.9034 57.3121 47.9034 57.3121 47.89 57.2806C47.8765 57.2445 47.8631 57.2085 47.8451 57.1724C47.7913 57.0417 47.7286 56.9199 47.6299 56.8117C47.4102 56.5818 47.0694 56.4691 46.76 56.5683C46.4686 56.6584 46.2758 56.8929 46.1816 57.1769C46.1592 57.24 46.1502 57.3031 46.1323 57.3708C46.1233 57.4023 46.1143 57.4294 46.1099 57.4609C46.0919 57.5195 46.0919 57.5195 46.1143 57.4609C46.1412 57.3753 46.1995 57.3076 46.2892 57.2626C46.6255 57.4564 46.9618 57.6503 47.3026 57.8486C47.2936 57.506 47.3116 57.1634 47.3519 56.8207C47.3967 56.4691 47.0111 56.131 46.6793 56.1445C46.2802 56.1625 46.056 56.442 46.0067 56.8162Z" fill="#727272"/>
<path d="M45.5942 49.8824C45.4687 50.3783 45.5314 50.8877 45.796 51.3251C46.1099 51.857 46.8318 51.6947 47.0246 51.1628C47.0963 50.9644 46.9887 51.2845 47.056 51.0816C47.0829 51.005 47.1053 51.041 47.038 51.0726C46.8318 51.1808 46.5538 51.1087 46.491 50.8382C46.5762 51.1943 46.9753 51.4062 47.3205 51.3115C47.6792 51.2123 47.8765 50.8382 47.7913 50.4775C47.6703 49.9635 47.1143 49.6885 46.6165 49.8058C46.1278 49.9275 45.8901 50.3558 45.7287 50.7976C46.1368 50.7435 46.5493 50.6894 46.9573 50.6353C46.8901 50.5181 46.8811 50.5271 46.8676 50.3873C46.8766 50.4595 46.8721 50.3693 46.8721 50.3467C46.8811 50.1484 46.8452 50.4279 46.8901 50.234C46.9753 49.8914 46.778 49.4857 46.4193 49.4C46.074 49.3279 45.6884 49.5127 45.5942 49.8824Z" fill="#727272"/>
<path d="M26.3671 48.2865C26.1698 48.548 25.9904 48.823 25.8335 49.1116C25.569 49.5849 26.0173 50.3243 26.5913 50.1034C26.7975 50.0268 26.9993 49.9456 27.2056 49.869C26.9321 49.7112 26.6541 49.5534 26.3761 49.3956C26.4119 49.4993 26.4299 49.5669 26.4254 49.6706C26.4209 50.0132 26.7393 50.3784 27.098 50.3468C27.4343 50.3198 27.7212 50.2386 28.0217 50.0944C28.349 49.9366 28.4342 49.4632 28.2638 49.1702C28.0665 48.8321 27.6719 48.7689 27.3446 48.9267C27.2773 48.9583 27.1518 48.9898 27.098 48.9944C27.3222 49.2198 27.5464 49.4452 27.7706 49.6706C27.775 49.4542 27.7437 49.2378 27.6719 49.0349C27.5598 48.7148 27.2056 48.4263 26.8424 48.5616C26.6361 48.6382 26.4344 48.7193 26.2281 48.796C26.4792 49.1251 26.7348 49.4587 26.9859 49.7878C27.1473 49.4993 27.3222 49.2243 27.5195 48.9628C27.7392 48.6698 27.5643 48.2054 27.2773 48.0386C26.941 47.8447 26.5868 47.9935 26.3671 48.2865Z" fill="#727272"/>
<path d="M22.5602 55.8785C22.3046 56.4421 22.0849 57.0191 21.9056 57.6142C21.7935 57.9839 22.0401 58.3266 22.3764 58.4483C22.6634 58.552 22.9728 58.4889 23.2239 58.3266C23.3315 58.2544 23.4032 58.1823 23.4839 58.0876C23.7933 57.7179 23.3673 58.1958 23.1162 57.8847C23.0579 57.7856 22.9997 57.6864 22.9414 57.5872C22.9055 57.461 22.9324 57.7224 22.9324 57.7179C22.9458 57.8216 22.9728 57.9298 23.0266 58.0245C23.1297 58.2003 23.318 58.3446 23.5108 58.3987C23.874 58.4979 24.3404 58.3581 24.4973 57.9884C24.6408 57.6548 24.5959 57.2626 24.2552 57.0642C23.9727 56.8974 23.4794 56.9695 23.336 57.3077C23.3494 57.2896 23.3629 57.2716 23.3808 57.2581C23.4794 57.1995 23.5781 57.1409 23.6767 57.0823C23.8112 57.1228 23.9458 57.1634 24.0803 57.204C24.1386 57.3032 24.1969 57.4023 24.2552 57.5015C24.291 57.6278 24.2641 57.3167 24.2552 57.2851C24.2193 57.1499 24.1565 57.0282 24.0668 56.929C23.9009 56.7532 23.6857 56.6495 23.4436 56.6359C23.2239 56.6269 23.0221 56.69 22.8427 56.8163C22.7575 56.8749 22.6858 56.9425 22.6185 57.0236C22.3405 57.3482 22.5333 57.0732 22.7396 57.1454C22.8965 57.4249 23.0535 57.6999 23.2104 57.9794C23.3539 57.497 23.5243 57.0282 23.7305 56.5683C23.8785 56.2347 23.8247 55.8425 23.4884 55.6441C23.1925 55.4683 22.7082 55.5449 22.5602 55.8785Z" fill="#727272"/>
<path d="M21.0715 63.8537C20.928 64.6291 20.928 65.382 21.0805 66.1574C21.1567 66.5407 21.5692 66.6849 21.91 66.6308C22.1073 66.5993 22.2911 66.4866 22.4301 66.3378C22.4884 66.2747 22.5422 66.198 22.5915 66.1259C22.6184 66.0853 22.6409 66.0447 22.6633 65.9997C22.7036 65.9365 22.6902 65.941 22.614 66.0042C22.4929 66.0042 22.3763 66.0042 22.2552 66.0042C22.2866 66.0132 22.318 66.0222 22.3494 66.0312C22.2508 65.9726 22.1521 65.914 22.0535 65.8554C22.0041 65.7517 21.9997 65.7562 22.0445 65.8689C22.0669 65.923 22.0893 65.9771 22.1118 66.0312C22.1835 66.1665 22.2821 66.2747 22.4077 66.3558C22.7081 66.5587 22.9816 66.5452 23.3045 66.3964C23.6363 66.2476 23.717 65.7607 23.5466 65.4722C23.3493 65.1295 22.9592 65.08 22.6274 65.2287C22.605 65.2377 22.5781 65.2513 22.5557 65.2603C22.7305 65.2377 22.9009 65.2152 23.0758 65.1927C23.0489 65.1837 23.022 65.1791 22.9951 65.1701C23.0937 65.2287 23.1924 65.2873 23.291 65.3459C23.3179 65.4361 23.3179 65.4451 23.2955 65.3775C23.2731 65.3054 23.2462 65.2377 23.2148 65.1746C23.1745 65.098 23.1296 65.0214 23.0668 64.9582C22.8785 64.7554 22.6184 64.6607 22.3449 64.6877C22.1073 64.7103 21.8965 64.8275 21.7306 64.9988C21.6499 65.08 21.5827 65.1746 21.5244 65.2738C21.5109 65.3009 21.493 65.3279 21.4795 65.355C21.3943 65.4812 21.4167 65.4677 21.5513 65.3189C21.8248 65.4767 22.1028 65.6345 22.3808 65.7923C22.2777 65.2693 22.2732 64.7328 22.3718 64.2099C22.4391 63.8492 22.2732 63.4795 21.901 63.3758C21.5692 63.2902 21.1387 63.493 21.0715 63.8537Z" fill="#727272"/>
<path d="M22.0311 73.6142C22.2194 73.9929 22.4033 74.3716 22.5916 74.7503C22.7575 75.0839 23.2104 75.1605 23.5108 74.9937C23.7529 74.8585 23.9188 74.6421 23.9951 74.3716C24.0309 74.2498 24.0533 74.0966 24.0399 73.9703C24.0264 73.8261 24.0892 73.8666 24.013 73.9343C23.9143 73.9929 23.8157 74.0515 23.717 74.1101C23.7081 74.1146 23.6991 74.1146 23.6901 74.1191C23.578 74.0875 23.4659 74.056 23.3494 74.0289C23.5825 74.1642 23.6946 74.3806 24.0354 74.3806C24.439 74.3806 24.5286 74.1416 24.7708 73.9027C24.6721 73.9613 24.5735 74.0199 24.4748 74.0785C24.3448 73.9974 24.2148 73.9162 24.0847 73.8306C24.1385 74.1912 24.5914 74.3896 24.9143 74.3039C25.2999 74.1957 25.4389 73.8351 25.3851 73.4699C25.3223 73.0642 24.9412 72.7621 24.5466 72.7215C24.0847 72.6764 23.7843 72.9289 23.5646 73.3076C23.6453 73.2265 23.726 73.1453 23.8067 73.0642C23.7843 73.0822 23.7574 73.1002 23.735 73.1183C23.8471 73.0867 23.9592 73.0551 24.0758 73.0281C24.0533 73.0281 24.0264 73.0281 24.004 73.0281C24.1161 73.0596 24.2282 73.0912 24.3448 73.1183C24.2641 73.0732 24.0533 72.8432 23.874 72.7937C23.6184 72.7215 23.3494 72.7756 23.1386 72.9334C22.9503 73.0732 22.8203 73.2806 22.753 73.5015C22.7082 73.6412 22.7575 73.9252 22.6857 74.0244C22.7665 73.9433 22.8472 73.8621 22.9279 73.781C22.901 73.7945 22.8741 73.8125 22.8427 73.8261C23.1476 73.9072 23.457 73.9884 23.7619 74.0695C23.5736 73.6908 23.3897 73.3121 23.2014 72.9334C22.8068 72.149 21.6455 72.8342 22.0311 73.6142Z" fill="#727272"/>
<path d="M26.1832 83.6587C26.1608 84.2403 26.7617 84.5694 27.2683 84.4116C27.5105 84.335 27.6853 84.1636 27.8019 83.9472C27.8199 83.9112 27.8378 83.8706 27.8557 83.8345C27.9544 83.6767 27.8557 83.7218 27.5508 83.9788C27.4118 83.9608 27.4746 83.9608 27.5732 84.0149C27.8916 84.1907 28.3086 84.0915 28.4925 83.7714C28.6718 83.4603 28.5687 83.023 28.2503 82.8472C27.9185 82.6624 27.5419 82.5542 27.1742 82.7075C26.9859 82.7886 26.8289 82.9239 26.7213 83.1042C26.6899 83.1538 26.6585 83.2124 26.6406 83.271C26.6316 83.289 26.6227 83.3071 26.6137 83.3251C26.8468 83.0636 27.089 83.0411 27.3446 83.2575C27.4029 83.3567 27.4611 83.4558 27.5194 83.555C27.5239 83.5911 27.5284 83.6272 27.5329 83.6632C27.5463 83.3071 27.2145 82.9689 26.8603 82.987C26.4792 83.0005 26.1967 83.28 26.1832 83.6587Z" fill="#727272"/>
<path d="M51.0377 50.1575C51.1184 50.5632 51.2574 50.9419 51.4323 51.3161C51.5982 51.6633 52.0511 51.7083 52.3515 51.5596C52.5219 51.4739 52.6609 51.3206 52.7506 51.1538C52.7775 51.1042 52.7954 51.0501 52.8223 50.996C52.9658 50.6849 52.8179 51.1538 52.4726 51.1177C52.3605 51.0862 52.2484 51.0546 52.1318 51.0276C52.0556 50.9915 52.2439 51.1132 52.2439 51.1132C52.3157 51.1673 52.365 51.1989 52.4502 51.235C52.625 51.3116 52.8044 51.3251 52.9927 51.2981C53.3963 51.2305 53.6339 50.969 53.7864 50.6038C53.9254 50.2657 53.6339 49.8599 53.3156 49.7698C52.93 49.6616 52.6295 49.905 52.486 50.2431C52.643 49.9501 52.8403 49.887 53.0734 50.0538C53.0555 50.0358 53.0376 50.0177 53.0152 50.0042C52.93 49.9185 52.7685 49.8284 52.652 49.7968C52.4367 49.7382 52.2036 49.7743 52.0152 49.887C51.8583 49.9817 51.7462 50.1304 51.67 50.2927C51.652 50.3333 51.6296 50.3784 51.6117 50.4235C51.5624 50.5677 51.5893 50.4325 51.67 50.3964C51.9749 50.4776 52.2843 50.5587 52.5892 50.6399C52.4636 50.3739 52.3874 50.0944 52.3291 49.8058C52.2618 49.4452 51.8314 49.2423 51.4996 49.3325C51.1364 49.4271 50.9705 49.7968 51.0377 50.1575Z" fill="#727272"/>
<path d="M52.5981 57.8982C52.6833 58.3265 52.773 58.7547 52.8582 59.183C53.0017 59.8908 53.9478 59.7601 54.154 59.183C54.2213 58.9892 54.3379 58.8629 54.4858 58.7277C54.1316 58.6826 53.7819 58.6375 53.4276 58.5924C53.5442 58.8629 53.6653 59.138 53.7819 59.4085C53.9164 59.7195 54.4365 59.8548 54.7011 59.6519C54.8625 59.5302 54.9925 59.422 55.0957 59.2416C55.1315 59.1785 55.1719 59.1019 55.1943 59.0298C55.2033 58.9982 55.2167 58.9666 55.2347 58.9396C55.3423 58.7412 55.136 58.6781 54.6114 58.7502C54.5621 59.1109 54.9567 59.4265 55.284 59.4265C55.6875 59.4265 55.9072 59.1154 55.9566 58.7502C56.0328 58.1867 55.5082 57.6773 54.9656 57.6773C54.6921 57.6773 54.4455 57.799 54.2616 57.9928C54.1765 58.083 54.1182 58.1822 54.0599 58.2904C54.024 58.3625 53.885 58.5879 54.024 58.4842C54.3289 58.5654 54.6383 58.6465 54.9432 58.7277C54.8266 58.4572 54.7056 58.1822 54.589 57.9117C54.4051 57.4879 53.8177 57.515 53.5308 57.7764C53.2079 58.0695 53.0017 58.4211 52.8537 58.8269C53.2842 58.8269 53.7191 58.8269 54.1495 58.8269C54.0644 58.3986 53.9747 57.9703 53.8895 57.542C53.7236 56.6854 52.4232 57.0461 52.5981 57.8982Z" fill="#727272"/>
<path d="M53.7774 68.2403C53.737 68.5784 53.7774 68.9256 53.8671 69.2502C53.9792 69.6424 54.4903 69.9084 54.8535 69.6559C55.0912 69.4891 55.2347 69.3088 55.3378 69.0383C55.3647 68.9707 55.3871 68.8985 55.4095 68.8264C55.4499 68.6821 55.4095 68.876 55.293 68.894C55.1719 68.894 55.0553 68.894 54.9342 68.894C54.8221 68.8489 54.7504 68.7813 54.7325 68.6821C54.719 68.6371 54.7235 68.6506 54.7504 68.7227C54.7639 68.7633 54.7773 68.8084 54.7908 68.8489C54.867 69.0563 54.9746 69.2231 55.145 69.3629C55.5127 69.6604 55.9297 69.6109 56.2884 69.3313C56.5754 69.1059 56.5216 68.61 56.2884 68.3756C56.0059 68.0915 55.6248 68.1502 55.3378 68.3756C55.3243 68.3891 55.3064 68.3981 55.293 68.4116C55.3916 68.353 55.4902 68.2944 55.5889 68.2358C55.571 68.2403 55.553 68.2448 55.5351 68.2493C55.6562 68.2493 55.7727 68.2493 55.8938 68.2493C55.9745 68.2629 56.0911 68.5108 56.0418 68.362C56.0059 68.2448 55.9611 68.1231 55.8983 68.0194C55.71 67.7129 55.3781 67.537 55.0239 67.5731C54.71 67.6047 54.4545 67.803 54.2841 68.0645C54.2123 68.1772 54.163 68.3034 54.1226 68.4297C54.1092 68.4702 54.0823 68.5289 54.0778 68.5694C54.0733 68.628 54.0644 68.5559 54.1765 68.4793C54.5038 68.6145 54.8356 68.7498 55.1629 68.885C55.1001 68.6641 55.0912 68.4657 55.1181 68.2358C55.1584 67.8706 54.7773 67.5596 54.4455 67.5596C54.0554 67.5641 53.8222 67.8752 53.7774 68.2403Z" fill="#727272"/>
<path d="M53.4052 76.202C53.3693 76.6438 53.4052 77.0766 53.4725 77.5139C53.5532 78.0233 54.2751 78.1541 54.5979 77.8114C54.7145 77.6897 54.8356 77.568 54.9611 77.4553C55.0732 77.3561 55.1898 77.2569 55.2795 77.1938C54.9522 77.0586 54.6204 76.9233 54.293 76.7881C54.3334 76.9053 54.3334 76.77 54.3199 76.8963C54.3289 76.8016 54.2661 76.9819 54.311 76.9053C54.1361 77.2254 54.2347 77.6446 54.5531 77.8295C54.8625 78.0098 55.2974 77.9106 55.4723 77.586C55.6651 77.2299 55.7279 76.8151 55.5934 76.4274C55.4633 76.0577 54.9791 75.7466 54.6069 76.0216C54.2661 76.2741 53.9478 76.5446 53.6563 76.8512C54.033 76.9504 54.4051 77.0495 54.7818 77.1487C54.7369 76.8557 54.7369 76.5131 54.7594 76.193C54.7863 75.8413 54.432 75.5032 54.0868 75.5167C53.6922 75.5438 53.4366 75.8233 53.4052 76.202Z" fill="#727272"/>
<path d="M52.9748 85.0338C52.7326 85.4441 52.5488 85.8949 52.4457 86.3638C52.365 86.7199 52.5533 87.0941 52.9165 87.1978C53.2931 87.3015 53.616 87.0716 53.746 86.7244C53.7864 86.6117 53.9209 86.3683 53.9926 86.2736C53.6743 86.2736 53.3604 86.2736 53.042 86.2736C52.9613 86.1744 52.9389 86.0662 52.9703 85.94C52.912 86.3007 53.0645 86.6658 53.4411 86.774C53.7639 86.8642 54.2079 86.6658 54.2706 86.3007C54.3334 85.9265 54.2661 85.5974 53.9971 85.3178C53.764 85.0744 53.2707 85.0338 53.0465 85.3178C52.7865 85.6424 52.5981 85.9716 52.4502 86.3638C52.8806 86.4855 53.3156 86.6027 53.746 86.7244C53.8312 86.3457 53.9433 86.0482 54.1406 85.7191C54.3244 85.4035 54.2123 84.9752 53.8985 84.7949C53.5801 84.6055 53.1631 84.7182 52.9748 85.0338Z" fill="#727272"/>
<path d="M57.8981 87.7343C57.6201 88.0995 57.4901 88.5503 57.4676 89.0056C57.4542 89.2716 57.647 89.5286 57.8802 89.6233C58.1447 89.7315 58.4003 89.6684 58.6155 89.4835C58.9473 89.1995 59.2792 88.911 59.611 88.6269C59.2567 88.5818 58.907 88.5368 58.5528 88.4917C58.5259 88.4511 58.5393 88.3925 58.5438 88.3474C58.5483 88.3159 58.62 88.2077 58.5483 88.3204C58.3555 88.6314 58.481 89.0642 58.7904 89.2446C59.1132 89.4339 59.5168 89.3122 59.7096 89.0011C59.9383 88.6359 59.9338 88.1716 59.7141 87.8019C59.4765 87.4052 58.9877 87.3826 58.6559 87.6667C58.3241 87.9507 57.9923 88.2392 57.6605 88.5232C58.0416 88.681 58.4272 88.8433 58.8083 89.0011C58.8173 88.7982 58.7725 89.0913 58.8173 88.8974C58.8352 88.8298 58.8532 88.7577 58.8756 88.69C58.8397 88.7847 58.9294 88.5954 58.9294 88.5909C58.9653 88.5277 59.0056 88.4691 59.0505 88.415C59.2702 88.122 59.0953 87.6576 58.8083 87.4908C58.472 87.288 58.1223 87.4412 57.8981 87.7343Z" fill="#727272"/>
<path d="M60.3822 78.88C60.288 79.3939 60.2342 79.9124 60.2297 80.4398C60.2208 81.1025 61.1579 81.373 61.4852 80.7825C61.687 80.4128 61.9247 80.0927 62.2206 79.7951C61.9471 79.8312 61.6781 79.8673 61.4045 79.8988C61.3911 79.8898 61.3731 79.8763 61.3597 79.8673C61.3014 79.7681 61.2431 79.6689 61.1848 79.5697C61.1714 79.5292 61.2162 79.4029 61.1714 79.5472C61.14 79.6373 61.122 79.7816 61.1176 79.8673C61.1086 80.0837 61.1714 80.2956 61.2969 80.4714C61.4404 80.6652 61.6781 80.796 61.9247 80.796C62.0592 80.796 62.2161 80.7554 62.3327 80.6923C62.3551 80.6788 62.3731 80.6698 62.3955 80.6562C62.5031 80.5886 62.4717 80.5841 62.3013 80.6427C62.1892 80.6111 62.0771 80.5796 61.9605 80.5525C61.7812 80.4624 61.7677 80.3587 61.7857 80.2279C61.7363 80.5886 61.8753 80.9538 62.2565 81.062C62.5704 81.1476 63.0322 80.9538 63.086 80.5886C63.1398 80.2009 63.1219 79.8087 62.8259 79.5156C62.678 79.3714 62.4538 79.2857 62.2475 79.2902C62.113 79.2947 61.9561 79.3398 61.8395 79.4029C61.8081 79.421 61.6601 79.4841 61.7453 79.466C61.8664 79.466 61.983 79.466 62.104 79.466C62.0861 79.4615 62.0637 79.4525 62.0457 79.448C62.1444 79.5066 62.243 79.5652 62.3417 79.6238C62.3865 79.998 62.4269 80.0927 62.4672 79.9078C62.4852 79.8628 62.4941 79.8177 62.5031 79.7681C62.5255 79.6644 62.5345 79.5562 62.5255 79.448C62.5076 79.1505 62.3551 78.8664 62.0816 78.7357C61.8126 78.6004 61.4897 78.6185 61.2655 78.8394C60.8934 79.2136 60.575 79.6373 60.3194 80.0972C60.7364 80.2099 61.1534 80.3226 61.5749 80.4398C61.5794 80.0386 61.6108 79.6373 61.6825 79.2406C61.7453 78.88 61.5839 78.5103 61.2117 78.4066C60.8799 78.3164 60.445 78.5193 60.3822 78.88Z" fill="#727272"/>
<path d="M61.288 69.5703C61.0951 70.0347 61.0907 70.5621 61.2386 71.04C61.4449 71.6982 62.3148 71.6667 62.5345 71.04C62.6466 70.7154 62.8484 70.4585 63.104 70.233C62.7228 70.0753 62.3372 69.913 61.9561 69.7552C61.9695 69.9851 61.9875 70.215 62.0009 70.4404C62.0278 70.8372 62.2879 71.0716 62.6735 71.1167C62.8887 71.1437 63.086 71.0716 63.2654 70.9544C63.3416 70.9048 63.4089 70.8462 63.4672 70.7785C63.4896 70.747 63.5165 70.7199 63.5389 70.6929C63.6196 70.6072 63.5523 70.6253 63.3326 70.747C63.2205 70.7154 63.1084 70.6839 62.9919 70.6568C62.956 70.6162 62.9156 70.5757 62.8798 70.5351C62.8484 70.4224 62.817 70.3097 62.7901 70.1925C62.7901 70.2105 62.7901 70.2285 62.7946 70.2466C62.8259 70.1339 62.8573 70.0212 62.8842 69.9039C62.8753 69.9175 62.8663 69.9355 62.8573 69.949C62.4 70.6929 63.5658 71.3736 64.0187 70.6298C64.2877 70.1925 64.0635 69.6244 63.5927 69.4531C63.3461 69.3629 63.095 69.381 62.8663 69.5072C62.7721 69.5568 62.6914 69.6289 62.6152 69.7056C62.5973 69.7236 62.5838 69.7461 62.5659 69.7642C62.4762 69.8543 62.5121 69.8543 62.6735 69.7642C62.8977 69.9896 63.1219 70.215 63.3461 70.4404C63.3326 70.2105 63.3147 69.9806 63.3012 69.7552C63.2609 69.1556 62.6018 68.8805 62.1534 69.2773C61.7229 69.6605 61.427 70.1384 61.2386 70.6794C61.6691 70.6794 62.104 70.6794 62.5345 70.6794C62.4493 70.4044 62.4762 70.1925 62.5838 69.931C62.7228 69.5929 62.4314 69.1871 62.113 69.0969C61.7274 68.9887 61.427 69.2322 61.288 69.5703Z" fill="#727272"/>
<path d="M60.7275 57.7178C60.7634 58.0965 60.8037 58.4797 60.8396 58.8584C60.871 59.1921 61.0683 59.4806 61.4225 59.5212C61.7454 59.5617 62.0772 59.3679 62.1624 59.0388C62.2341 58.7502 62.3328 58.4888 62.4762 58.2318C62.0906 58.2318 61.7005 58.2318 61.3149 58.2318C61.3822 58.358 61.4494 58.4843 61.5122 58.606C61.7588 59.0703 62.4135 59.0162 62.6735 58.606C62.696 58.5699 62.7273 58.5384 62.7273 58.5248C62.7991 58.4617 62.7498 58.4662 62.5883 58.5384C62.5166 58.5789 62.4449 58.5879 62.3731 58.5744C62.2924 58.4933 62.2117 58.4121 62.131 58.331C62.1265 58.3129 62.122 58.2949 62.1175 58.2769C62.3776 59.1019 63.6779 58.7502 63.4134 57.9162C63.2789 57.4924 62.9112 57.2264 62.4628 57.24C62.0278 57.2535 61.7229 57.5781 61.5077 57.9207C61.8933 57.9207 62.2834 57.9207 62.6691 57.9207C62.6018 57.7945 62.5345 57.6683 62.4718 57.5465C62.2386 57.1047 61.5481 57.1092 61.3104 57.5465C61.1176 57.9027 60.9652 58.2814 60.862 58.6781C61.3014 58.7367 61.7409 58.7998 62.1848 58.8584C62.1489 58.4797 62.1086 58.0965 62.0727 57.7178C62.0368 57.3527 61.7902 57.0416 61.4001 57.0416C61.0638 57.0416 60.6916 57.3527 60.7275 57.7178Z" fill="#727272"/>
<path d="M57.3959 50.1575C57.5663 50.5902 57.777 50.9509 58.073 51.3116C58.4137 51.7263 59.0549 51.4558 59.1984 51.014C59.3016 50.6894 59.3464 50.3378 59.315 49.9997C58.898 50.1124 58.481 50.2251 58.0595 50.3423C58.1895 50.5948 58.3734 50.8247 58.5931 51.005C58.8756 51.2349 59.2702 51.28 59.5437 51.005C59.7813 50.7661 59.8262 50.2792 59.5437 50.0493C59.463 49.9861 59.3868 49.914 59.324 49.8374C59.2567 49.7517 59.3643 49.905 59.306 49.8103C59.2747 49.7607 59.2478 49.7111 59.2209 49.6615C59.0818 49.391 58.7366 49.2693 58.4586 49.346C58.194 49.4181 57.9384 49.7066 57.9654 49.9997C57.9923 50.2837 57.9833 50.3964 57.8981 50.6534C58.2747 50.5542 58.6469 50.455 59.0236 50.3558C58.9653 50.2882 58.907 50.2025 58.8397 50.0853C58.8083 50.0312 58.7769 49.9726 58.7456 49.9185C58.7366 49.905 58.6648 49.7337 58.6873 49.8013C58.5527 49.4632 58.2389 49.2242 57.8577 49.3279C57.5439 49.4136 57.2614 49.8148 57.3959 50.1575Z" fill="#727272"/>
<path d="M64.1891 49.6345C64.2429 49.9185 64.3505 50.1936 64.4985 50.446C64.6509 50.703 64.9693 50.8382 65.2563 50.7571C65.5612 50.6714 65.7226 50.4054 65.7495 50.1034C65.7809 49.7878 65.8123 49.4677 65.8437 49.1521C65.5074 49.346 65.1711 49.5398 64.8303 49.7382C65.0365 49.8915 65.2428 50.0493 65.4491 50.2026C65.7405 50.419 66.2024 50.2522 66.3683 49.9591C66.57 49.6165 66.4176 49.2513 66.1261 49.0349C65.9199 48.8816 65.7136 48.7238 65.5074 48.5706C65.319 48.4308 65.0186 48.4579 64.8303 48.5706C64.6106 48.7013 64.5209 48.9087 64.4985 49.1566C64.4671 49.4722 64.4357 49.7923 64.4043 50.1079C64.8213 49.9952 65.2383 49.8825 65.6598 49.7653C65.5522 49.5849 65.5253 49.4993 65.4849 49.2784C65.4177 48.9177 64.9872 48.7148 64.6554 48.805C64.2877 48.9042 64.1263 49.2739 64.1891 49.6345Z" fill="#727272"/>
<path d="M67.1754 57.7494C67.2382 58.1236 67.3278 58.4843 67.4489 58.8449C67.5879 59.2732 68.0363 59.4536 68.4354 59.2507C68.682 59.1245 68.8389 58.89 68.9017 58.624C68.9331 58.5023 68.9376 58.3716 68.9465 58.2408C68.9465 58.1957 68.951 58.1507 68.9555 58.1056C68.9465 58.2949 68.821 58.4167 68.5744 58.4798C68.4623 58.4482 68.3502 58.4167 68.2336 58.3896C68.7627 58.6511 69.1752 58.8269 69.7806 58.6917C70.6235 58.5023 70.2693 57.1949 69.4218 57.3888C69.2111 57.4384 69.09 57.3121 68.9107 57.222C68.5968 57.0687 68.2381 57.0912 67.9646 57.3076C67.7583 57.4699 67.6641 57.6953 67.6283 57.9523C67.6148 58.0515 67.6103 58.1462 67.6014 58.2453C67.5924 58.331 67.5969 58.3355 67.6058 58.2679C67.561 58.4212 67.6103 58.358 67.7583 58.0875C68.0856 58.2228 68.4174 58.358 68.7448 58.4933C68.6282 58.1326 68.5385 57.772 68.4712 57.3978C68.4085 57.0371 67.969 56.8342 67.6417 56.9244C67.2651 57.0191 67.1126 57.3888 67.1754 57.7494Z" fill="#727272"/>
<path d="M68.7403 67.5325C68.6955 67.8751 68.6461 68.2178 68.6013 68.5604C68.5609 68.8624 68.6282 69.16 68.9107 69.3223C69.1439 69.4621 69.5474 69.4485 69.7268 69.2186C69.8254 69.0879 69.9241 68.9797 70.081 68.9256C69.7985 68.7092 69.5115 68.4928 69.229 68.2719C69.238 68.5424 69.2425 68.8129 69.2515 69.0834C69.2649 69.5342 69.6685 69.8408 70.1034 69.7371C70.3186 69.6875 70.498 69.5793 70.6684 69.444L70.8343 69.3133C70.8208 69.2952 70.6056 69.3088 70.5563 69.2547C70.498 69.1555 70.4397 69.0563 70.3814 68.9571C70.3904 68.9797 70.3949 69.0022 70.4038 69.0247C70.6863 69.8408 71.9867 69.4891 71.6997 68.6641C71.5428 68.2178 71.184 67.9653 70.7087 67.9788C70.5159 67.9833 70.3142 68.0464 70.1483 68.1456C70.0137 68.2268 69.8882 68.3936 69.7357 68.4297C70.0182 68.6461 70.3052 68.8624 70.5877 69.0834C70.5787 68.8129 70.5742 68.5424 70.5653 68.2719C70.5563 67.8571 70.1393 67.4739 69.7133 67.6182C69.3411 67.7489 69.0093 67.9473 68.7672 68.2628C69.1439 68.4838 69.516 68.7002 69.8927 68.9211C69.9375 68.5784 69.9868 68.2358 70.0317 67.8932C70.081 67.5325 69.9465 67.1673 69.5609 67.0591C69.256 66.9735 68.7896 67.1673 68.7403 67.5325Z" fill="#727272"/>
<path d="M66.8077 78.7311C66.7135 79.1143 66.6194 79.4975 66.5297 79.8807C66.4445 80.2324 66.6373 80.6201 67.0005 80.7147C67.3233 80.8004 67.6327 80.7373 67.8973 80.5254C68.108 80.3541 68.1843 80.0881 68.3771 79.9213C68.2784 79.9799 68.1798 80.0385 68.0811 80.0971C68.1125 80.0836 68.1439 80.0701 68.1798 80.0565C68.0587 80.0565 67.9421 80.0565 67.8211 80.0565C67.8524 80.061 67.8838 80.0701 67.9197 80.0746C67.7852 79.9709 67.6507 79.8672 67.5162 79.7635C67.5072 79.7094 67.5117 79.7229 67.5251 79.8131C67.5565 79.8897 67.5879 79.9664 67.6238 80.043C67.7134 80.1918 67.8525 80.2955 68.0049 80.3631C68.1663 80.4352 68.3457 80.4442 68.5206 80.4082C68.5788 80.4037 68.6371 80.3856 68.6909 80.3631C68.9555 80.2774 68.9017 80.2504 68.5295 80.2864C68.4488 80.2053 68.3681 80.1242 68.2874 80.043C68.2964 80.0565 68.3098 80.0746 68.3188 80.0881C68.2874 79.9754 68.256 79.8627 68.2291 79.7455C68.2291 79.7635 68.2291 79.786 68.2246 79.8041C68.1843 80.6742 69.5294 80.6742 69.5698 79.8041C69.5877 79.4344 69.3366 79.1233 68.9914 79.0151C68.8299 78.9655 68.6506 78.961 68.4847 79.0016C68.4264 79.0151 68.1977 79.0602 68.265 79.0692C68.3771 79.1008 68.4892 79.1323 68.6057 79.1594C68.5833 79.1458 68.5654 79.1278 68.543 79.1143C68.6237 79.1954 68.7044 79.2766 68.7851 79.3577C68.7537 79.2946 68.682 79.0557 68.5699 78.9385C68.3905 78.7581 68.0632 78.677 67.8211 78.7446C67.6238 78.7987 67.4534 78.9159 67.3189 79.0647C67.2471 79.1458 67.1843 79.236 67.1305 79.3307C67.1126 79.3622 67.0992 79.3938 67.0812 79.4209C66.9557 79.5922 67.0498 79.5877 67.3637 79.4028C67.5206 79.6823 67.6776 79.9573 67.8345 80.2369C67.9287 79.8537 68.0228 79.4704 68.1125 79.0872C68.3098 78.2442 67.014 77.8835 66.8077 78.7311Z" fill="#727272"/>
<path d="M65.3818 86.8641C65.4805 86.9407 65.5791 87.0174 65.6778 87.094C65.9647 87.3194 66.4311 87.1391 66.597 86.8506C66.7988 86.5034 66.6463 86.1473 66.3548 85.9264C66.2562 85.8497 66.1575 85.7731 66.0589 85.6964C65.7719 85.471 65.3056 85.6514 65.1397 85.9399C64.9379 86.287 65.0949 86.6387 65.3818 86.8641Z" fill="#727272"/>
</g>
<g clip-path="url(#clip1_85_155)">
<path d="M35.2992 44.7375C35.8584 40.1055 32.6253 36.647 29.1803 33.9798C27.1737 32.424 25.2122 31.126 23.9046 28.8989C23.2372 27.7564 22.5969 26.4673 22.2226 25.2004C21.4922 22.7332 22.7547 18.8569 25.8796 21.7019C27.6787 23.3422 28.0936 25.4582 29.4689 27.2808C30.2444 28.3121 31.4349 28.8633 32.6749 28.2054C36.404 26.2317 33.5181 19.3859 32.6839 16.6654C31.6738 13.3714 31.1418 10.2019 32.8417 7.03241C33.4009 5.99221 34.0276 4.92089 34.7446 3.98293C35.209 3.37837 35.7997 2.72491 36.4626 2.30705C37.8334 1.43577 38.6585 1.43577 40.1736 1.89809C41.7879 2.39151 41.8014 2.47598 42.1306 4.00516C42.2839 4.71196 42.347 5.48989 42.3831 6.21892C42.4598 7.76144 42.3335 9.3173 42.0134 10.8331C41.4136 13.7093 39.6866 16.252 39.3079 19.1725C39.0283 21.3196 39.2222 28.1432 42.8115 27.503C47.0185 26.7518 46.7164 20.0927 50.9099 19.2037C54.4 18.4613 56.1045 22.2442 54.6255 24.8403C53.8229 26.2539 52.4882 27.3474 51.203 28.3121C48.9124 30.0324 46.1122 30.9304 43.8621 32.6685C39.7903 35.8246 41.1431 40.7856 42.816 44.8531C43.1407 45.6399 44.4483 45.2931 44.1191 44.4974C42.9919 41.7547 41.576 38.3985 43.1001 35.5179C44.5114 32.8507 48.236 31.9172 50.6394 30.3436C53.886 28.2187 58.544 24.218 55.7934 20.0083C53.4937 16.4831 49.0386 17.6611 46.9374 20.6128C46.3016 21.5063 45.8101 22.4887 45.2464 23.4267C44.9894 23.8534 44.7324 24.2846 44.4303 24.6847C44.2138 24.9425 43.9974 25.1959 43.781 25.4537C42.072 25.8272 41.1882 25.3782 41.1296 24.0979C39.4161 20.5061 41.4903 16.8254 42.6537 13.5137C43.5194 11.051 43.8892 8.42824 43.7043 5.82773C43.578 4.02739 43.3887 1.59136 41.6707 0.515596C40.1601 -0.431253 37.8379 0.111074 36.3544 0.848994C34.1449 1.95143 32.7921 4.28966 31.6738 6.37006C28.8015 11.7133 31.7009 16.4209 32.7696 21.8042C32.9094 22.5198 33.2656 24.089 33.0266 24.8847C32.2961 25.5427 31.5656 26.1961 30.8306 26.854C30.4113 26.325 30.0956 25.7471 29.8747 25.1115C29.4508 24.1824 29.0044 23.3156 28.3867 22.4887C27.4127 21.1818 25.5729 19.0347 23.6926 19.1414C21.8664 19.2481 20.7932 21.1507 20.5993 22.7377C20.3107 25.0848 21.5868 27.5875 22.7412 29.579C25.9427 35.0956 34.8663 37.1271 33.9465 44.7464C33.8473 45.5865 35.2 45.5821 35.2992 44.7375Z" fill="#46A358"/>
<path d="M46.987 22.5732C47.961 17.7056 46.1212 13.2558 45.738 8.45043C45.508 5.57877 46.748 0.986771 50.689 2.29369C53.6245 3.26721 54.7383 6.71677 54.5399 9.4773C54.3956 11.4955 53.4126 17.4166 57.3536 16.8654C60.7354 16.3942 62.4805 10.8376 64.1218 8.48155C65.5287 6.46338 68.6355 3.51615 71.3681 4.33853C75.6969 5.641 72.9237 10.762 70.9307 12.7757C67.5713 16.1675 63.9911 19.1681 61.0285 22.9466C59.3106 25.1381 57.8225 28.7388 61.6328 29.7212C63.0982 30.0991 64.5096 29.5967 65.8308 29.0011C66.895 28.521 67.9095 27.9475 69.0413 27.6319C71.1065 27.054 73.5009 27.5074 72.1346 30.0368C68.9376 35.9624 61.6192 31.5927 56.8981 34.0776C52.894 36.1891 51.9606 40.8567 52.3394 44.9508C52.416 45.7999 53.7733 45.8088 53.6921 44.9508C53.4261 42.0969 53.6561 39.0119 55.6581 36.7492C58.2464 33.8242 61.7004 34.8911 65.1274 34.8244C68.6265 34.7577 73.1311 33.0863 73.8571 29.2322C74.6507 25.0092 69.7718 25.8271 67.2692 26.8451C66.1645 27.2941 65.1319 27.992 63.9775 28.3209C63.0622 28.5832 61.6147 28.7255 60.8933 27.8764C60.1943 27.0496 60.758 25.6582 61.1909 24.9558C62.7736 22.3776 65.1995 20.026 67.3549 17.9056C70.3264 14.9806 75.3947 11.8778 74.9574 7.10795C74.6237 3.45836 71.2057 2.12032 68.0538 3.48948C66.16 4.31186 64.5953 5.61878 63.3598 7.2502C61.7455 9.3795 60.8842 12.3045 58.9588 14.1804C58.2644 14.8561 57.5835 16.2919 56.0324 14.8828C55.3425 14.256 55.5499 12.5846 55.6221 11.7266C55.7167 10.602 55.9602 9.50397 55.9242 8.37042C55.8655 6.45449 55.2207 4.5119 53.9627 3.02716C51.3023 -0.102328 46.7345 0.0354759 44.9669 3.96068C43.9118 6.3078 44.3762 8.99276 44.8181 11.4288C45.4674 15.025 46.4188 18.5546 45.6839 22.2175C45.517 23.0577 46.8202 23.4178 46.987 22.5732Z" fill="#46A358"/>
<path d="M46.6849 31.0059C46.0491 35.589 45.0075 40.0788 43.5556 44.4796C43.285 45.2975 44.5927 45.6487 44.8587 44.8352C46.3107 40.4344 47.3523 35.9446 47.9881 31.3615C48.1053 30.5169 46.8022 30.1568 46.6849 31.0059Z" fill="#46A358"/>
<path d="M30.506 43.9729C30.3302 40.4433 27.8456 38.0607 24.9868 36.247C23.1335 35.069 21.1044 34.0865 19.5127 32.5529C18.8273 31.895 17.5512 30.6192 17.4835 29.5968C17.2536 26.1872 21.4787 28.8411 22.4166 29.6279C23.0749 30.1836 24.0354 29.2412 23.3725 28.6855C21.898 27.4453 19.2511 25.8316 17.2265 26.7651C15.5942 27.5164 15.8647 29.379 16.4915 30.7215C19.1294 36.4248 28.8061 37.0782 29.1533 43.9729C29.1938 44.8264 30.5511 44.8308 30.506 43.9729Z" fill="#46A358"/>
<path d="M60.8392 45.2931C62.5256 42.786 64.7486 40.7367 67.4722 39.3587C69.9522 38.1051 73.0275 37.8873 75.2234 36.1136C77.7441 34.0776 77.8748 29.0856 73.7038 29.2145C72.8336 29.2412 72.8336 30.5747 73.7038 30.5481C75.3497 30.7703 76.017 31.6683 75.7149 33.2375C75.3767 34.1399 74.8041 34.8511 73.9969 35.3668C73.0094 36.0558 71.81 36.3714 70.6737 36.727C69.2262 37.1805 67.8149 37.6561 66.4757 38.3674C63.689 39.8521 61.4119 42.0303 59.6668 44.6219C59.1843 45.3376 60.3567 46.0044 60.8392 45.2931Z" fill="#46A358"/>
<path d="M64.5142 33.5619C58.783 34.6288 56.6682 40.2521 55.3109 45.173C55.081 46.0043 56.3886 46.3555 56.6141 45.5287C57.8496 41.0523 59.6307 35.8246 64.8749 34.8511C65.7271 34.6866 65.3664 33.4019 64.5142 33.5619Z" fill="#46A358"/>
<path d="M34.2937 13.2647C33.6218 10.602 34.4605 7.68588 36.6339 5.89887C37.0713 5.52102 37.5673 5.23208 38.1129 5.03204C39.6145 5.34765 40.3134 6.13892 40.2097 7.40583C40.2368 8.14375 40.0925 8.87278 39.9166 9.58403C39.5604 11.0199 38.9336 12.3846 38.4692 13.7893C37.2742 17.4078 35.5562 23.3245 38.7848 26.4051C39.0959 26.7029 39.5784 26.2317 39.2628 25.9339C36.431 23.2356 37.883 18.0479 38.8524 14.8162C39.6911 12.0156 41.9683 8.29489 40.4307 5.3521C39.2312 3.05832 36.4806 4.92091 35.3127 6.26339C33.5857 8.25044 33.0041 10.9221 33.6398 13.4426C33.7481 13.8604 34.3974 13.6826 34.2937 13.2647Z" fill="#46A358"/>
<path d="M48.5878 24.0623C48.9756 23.2133 49.7602 22.013 50.8108 21.8708C52.4116 21.653 53.2367 23.6356 52.38 24.9469C51.5729 26.1827 50.0352 27.0451 48.7095 27.5741C46.5046 28.4498 45.0255 29.6589 43.4248 31.3882C43.1317 31.7038 43.6097 32.1794 43.9028 31.8594C44.8722 30.8058 45.8643 29.7123 47.1268 28.9833C48.1324 28.4009 49.3002 28.1742 50.3103 27.6052C51.5413 26.9073 53.5343 25.4003 53.6786 23.88C53.7959 22.6531 52.4837 21.2306 51.2572 21.1551C49.7782 21.0617 48.5427 22.5553 48.0061 23.7289C47.8257 24.1112 48.4119 24.4535 48.5878 24.0623Z" fill="#46A358"/>
<path d="M23.3004 24.8359C23.4492 23.6668 23.8956 23.2356 24.6351 23.5512C24.8966 23.5557 25.113 23.649 25.2934 23.8313C25.6496 24.0624 25.8841 24.4047 26.096 24.7648C26.4748 25.4093 26.6507 26.1606 26.9302 26.8452C27.2865 27.7253 27.7554 28.441 28.5626 28.9656C28.9278 29.2056 29.266 28.6277 28.9053 28.3877C26.9212 27.0897 27.4758 23.7201 24.9958 22.9022C23.5078 22.4132 22.0107 23.6846 22.7187 25.1693C22.9036 25.5605 23.4852 25.2226 23.3004 24.8359Z" fill="#46A358"/>
<path d="M47.5326 7.58367C47.1809 5.66329 49.2326 4.13411 50.8018 5.53438C51.6675 6.30786 52.0012 7.73036 52.0057 8.84169C52.0147 10.3486 51.3158 11.6956 51.6134 13.207C51.6946 13.6293 52.3484 13.4515 52.2673 13.0292C51.893 11.131 52.9662 9.31289 52.4837 7.34362C52.1951 6.16561 51.6089 4.85425 50.3734 4.40972C48.1459 3.61401 46.5091 5.73887 46.8788 7.75703C46.96 8.17934 47.6093 8.00152 47.5326 7.58367Z" fill="#46A358"/>
<path d="M47.1944 11.98C48.2947 14.2604 48.8358 16.2608 48.7546 18.7902C48.7411 19.2214 49.4175 19.2169 49.431 18.7902C49.5167 16.1319 48.9305 14.0293 47.7806 11.6466C47.5913 11.2598 47.0096 11.5977 47.1944 11.98Z" fill="#46A358"/>
<path d="M64.7351 10.073C65.3889 8.60162 66.6244 7.67255 68.0538 6.97464C68.4641 6.76126 68.888 6.5879 69.3299 6.45009C71.2373 7.09022 71.7198 7.97483 70.7774 9.11283C70.3264 9.81074 69.6726 10.4375 69.109 11.051C66.9626 13.3848 64.6449 15.5452 62.1964 17.5633C61.8627 17.839 62.3407 18.3102 62.6744 18.0345C64.8884 16.212 66.9942 14.2738 68.9602 12.1934C70.1416 10.9443 72.4097 9.0906 71.9137 7.11689C70.9262 3.20502 64.9786 7.86814 64.1489 9.73962C63.9775 10.1264 64.5637 10.4642 64.7351 10.073Z" fill="#46A358"/>
<path d="M60.9158 19.986C58.7559 21.5507 57.4437 23.8312 57.1957 26.4583C57.1551 26.8851 57.8315 26.8806 57.8721 26.4583C58.0976 24.0845 59.306 21.973 61.2585 20.5594C61.6057 20.3105 61.2675 19.7281 60.9158 19.986Z" fill="#46A358"/>
<path d="M65.195 31.1082C65.6369 30.8459 66.0788 30.5703 66.5433 30.3436C66.895 30.1524 67.2648 30.0058 67.6525 29.9035C68.3785 29.6057 68.622 30.1613 68.3785 31.5705C67.9006 32.4996 65.3123 32.5351 64.5097 32.4862C62.5031 32.3707 60.6137 31.8283 58.6342 32.4284C58.2194 32.5529 58.3952 33.1975 58.8146 33.073C61.1909 32.3484 63.5041 33.402 65.903 33.1397C67.2061 32.993 69.0504 32.4018 69.6997 31.1571C70.0604 30.4636 69.9748 29.5479 69.1857 29.17C67.8915 28.5521 65.8714 29.9213 64.8524 30.5303C64.4826 30.757 64.8208 31.3349 65.195 31.1082Z" fill="#46A358"/>
<path d="M55.1396 33.5886C51.6224 36.4025 50.3418 40.67 49.9856 44.973C49.9495 45.3998 50.6259 45.3998 50.662 44.973C51.0047 40.8345 52.2357 36.7626 55.6175 34.0598C55.9557 33.7887 55.4732 33.3219 55.1396 33.5886Z" fill="#46A358"/>
<path d="M40.0023 34.7222C38.9562 36.5092 38.9877 38.4562 39.2177 40.4566C39.4116 42.137 39.6325 43.7862 40.8094 45.0931C41.098 45.4131 41.576 44.9419 41.2874 44.6219C40.1331 43.3416 39.9888 41.5635 39.8354 39.9276C39.6731 38.2251 39.6957 36.5759 40.5885 35.0556C40.8049 34.6866 40.2232 34.3532 40.0023 34.7222Z" fill="#46A358"/>
<path d="M21.3433 30.3303C19.3864 30.357 20.1619 32.3885 21.2081 33.1175C22.5157 34.0288 24.0037 34.6378 25.3926 35.4068C27.0294 36.3137 27.6877 37.8428 28.9458 39.1186C29.2479 39.4254 29.7259 38.9542 29.4238 38.6474C28.1747 37.3805 27.5705 35.8647 25.9607 34.9578C25.1491 34.5 24.2968 34.1132 23.4807 33.6732C23.0568 33.4464 22.633 33.2197 22.2271 32.9663C22.0648 32.8686 21.898 32.7663 21.7356 32.6685C20.9285 32.3662 20.8022 31.8106 21.3478 31.0015C21.7762 30.9926 21.7762 30.3258 21.3433 30.3303Z" fill="#46A358"/>
<path d="M72.2384 33.402C72.2609 34.2911 71.8461 34.7756 70.9848 34.8601C70.57 35.0245 70.1596 35.1846 69.7448 35.349C69.127 35.5935 68.5048 35.838 67.887 36.0825C66.4441 36.6515 64.9966 37.225 63.5537 37.794C63.1524 37.9495 63.3282 38.5986 63.7341 38.4385C65.3844 37.7851 67.0348 37.1361 68.6851 36.4826C69.9071 35.9981 71.4673 35.6513 72.554 34.8956C73.4964 34.2377 73.5235 32.873 72.2339 32.7352C71.8055 32.6863 71.81 33.3576 72.2384 33.402Z" fill="#46A358"/>
<path d="M62.0025 38.7185C60.1898 40.4077 58.7604 42.3903 57.7504 44.6396C57.5745 45.0264 58.1562 45.3686 58.3366 44.9775C59.3241 42.7815 60.7084 40.8433 62.485 39.1941C62.7961 38.8963 62.3182 38.4251 62.0025 38.7185Z" fill="#46A358"/>
<path d="M30.5511 41.6347C31.0696 42.3904 31.4033 43.2038 31.5611 44.1018C31.6333 44.5241 32.2871 44.3463 32.215 43.924C32.0481 42.9771 31.6829 42.0925 31.1373 41.2968C30.8938 40.9456 30.3076 41.279 30.5511 41.6347Z" fill="#46A358"/>
</g>
<defs>
<clipPath id="clip0_85_155">
<rect width="55" height="48" fill="white" transform="translate(19 45)"/>
</clipPath>
<clipPath id="clip1_85_155">
<rect width="61" height="46" fill="white" transform="translate(16)"/>
</clipPath>
</defs>
</svg>
