<svg width="61" height="46" viewBox="0 0 61 46" fill="none" xmlns="http://www.w3.org/2000/svg">
<g id="Frame" clip-path="url(#clip0_1_2481)">
<g id="Group">
<g id="Group_2">
<path id="Vector" d="M19.2992 44.7375C19.8584 40.1055 16.6253 36.647 13.1803 33.9798C11.1737 32.424 9.21221 31.126 7.90455 28.8989C7.2372 27.7564 6.5969 26.4673 6.22264 25.2004C5.49215 22.7332 6.75472 18.8569 9.87957 21.7019C11.6787 23.3422 12.0936 25.4582 13.4689 27.2808C14.2444 28.3121 15.4349 28.8633 16.6749 28.2054C20.404 26.2317 17.5181 19.3859 16.6839 16.6654C15.6738 13.3714 15.1418 10.2019 16.8417 7.03241C17.4009 5.99221 18.0276 4.92089 18.7446 3.98293C19.209 3.37837 19.7997 2.72491 20.4626 2.30705C21.8334 1.43577 22.6585 1.43577 24.1736 1.89809C25.7879 2.39151 25.8014 2.47598 26.1306 4.00516C26.2839 4.71196 26.347 5.48989 26.3831 6.21892C26.4598 7.76144 26.3335 9.3173 26.0134 10.8331C25.4136 13.7093 23.6866 16.252 23.3079 19.1725C23.0283 21.3196 23.2222 28.1432 26.8115 27.503C31.0185 26.7518 30.7164 20.0927 34.9099 19.2037C38.4 18.4613 40.1045 22.2442 38.6255 24.8403C37.8229 26.2539 36.4882 27.3474 35.203 28.3121C32.9124 30.0324 30.1122 30.9304 27.8621 32.6685C23.7903 35.8246 25.1431 40.7856 26.816 44.8531C27.1407 45.6399 28.4483 45.2931 28.1191 44.4974C26.9919 41.7547 25.576 38.3985 27.1001 35.5179C28.5114 32.8507 32.236 31.9172 34.6394 30.3436C37.886 28.2187 42.544 24.218 39.7934 20.0082C37.4937 16.4831 33.0386 17.6611 30.9374 20.6128C30.3016 21.5063 29.8101 22.4887 29.2464 23.4267C28.9894 23.8534 28.7324 24.2846 28.4303 24.6847C28.2138 24.9425 27.9974 25.1959 27.781 25.4537C26.072 25.8272 25.1882 25.3782 25.1296 24.0979C23.4161 20.5061 25.4903 16.8254 26.6537 13.5137C27.5194 11.051 27.8892 8.42824 27.7043 5.82773C27.578 4.02739 27.3887 1.59136 25.6707 0.515596C24.1601 -0.431253 21.8379 0.111074 20.3544 0.848994C18.1449 1.95143 16.7921 4.28966 15.6738 6.37006C12.8015 11.7133 15.7009 16.4209 16.7696 21.8042C16.9094 22.5198 17.2656 24.089 17.0266 24.8847C16.2961 25.5427 15.5656 26.1961 14.8306 26.854C14.4113 26.325 14.0956 25.7471 13.8747 25.1115C13.4508 24.1824 13.0044 23.3156 12.3867 22.4887C11.4127 21.1818 9.57295 19.0347 7.69262 19.1414C5.86641 19.2481 4.79323 21.1507 4.59934 22.7377C4.31075 25.0848 5.58684 27.5875 6.74119 29.579C9.9427 35.0956 18.8663 37.1271 17.9465 44.7464C17.8473 45.5865 19.2 45.5821 19.2992 44.7375Z" fill="#46A358"/>
</g>
<g id="Group_3">
<path id="Vector_2" d="M30.9869 22.5732C31.9609 17.7056 30.1212 13.2558 29.7379 8.45043C29.5079 5.57877 30.748 0.986771 34.689 2.29369C37.6244 3.26721 38.7382 6.71677 38.5398 9.4773C38.3955 11.4955 37.4125 17.4166 41.3535 16.8654C44.7354 16.3942 46.4804 10.8376 48.1218 8.48155C49.5286 6.46338 52.6354 3.51615 55.368 4.33853C59.6968 5.641 56.9237 10.762 54.9306 12.7757C51.5713 16.1675 47.991 19.1681 45.0285 22.9466C43.3105 25.1381 41.8225 28.7388 45.6327 29.7212C47.0982 30.0991 48.5096 29.5967 49.8307 29.0011C50.8949 28.521 51.9095 27.9475 53.0413 27.6319C55.1065 27.054 57.5008 27.5074 56.1346 30.0368C52.9376 35.9624 45.6192 31.5927 40.8981 34.0776C36.8939 36.1891 35.9605 40.8567 36.3393 44.9508C36.416 45.7999 37.7732 45.8088 37.6921 44.9508C37.426 42.0969 37.656 39.0119 39.6581 36.7492C42.2463 33.8242 45.7003 34.8911 49.1273 34.8244C52.6264 34.7577 57.1311 33.0863 57.8571 29.2322C58.6507 25.0092 53.7718 25.8271 51.2692 26.8451C50.1644 27.2941 49.1318 27.992 47.9775 28.3209C47.0621 28.5832 45.6147 28.7255 44.8932 27.8764C44.1943 27.0496 44.7579 25.6582 45.1908 24.9558C46.7735 22.3776 49.1995 20.026 51.3548 17.9056C54.3264 14.9806 59.3947 11.8778 58.9573 7.10795C58.6236 3.45836 55.2057 2.12032 52.0538 3.48948C50.1599 4.31186 48.5952 5.61878 47.3597 7.2502C45.7454 9.3795 44.8842 12.3045 42.9588 14.1804C42.2644 14.8561 41.5835 16.2919 40.0323 14.8828C39.3424 14.256 39.5498 12.5846 39.622 11.7266C39.7167 10.602 39.9602 9.50397 39.9241 8.37042C39.8655 6.45449 39.2207 4.5119 37.9626 3.02716C35.3022 -0.102328 30.7344 0.0354759 28.9668 3.96068C27.9117 6.3078 28.3761 8.99276 28.818 11.4288C29.4674 15.025 30.4188 18.5546 29.6838 22.2175C29.517 23.0577 30.8201 23.4178 30.9869 22.5732Z" fill="#46A358"/>
</g>
<g id="Group_4">
<path id="Vector_3" d="M30.6849 31.0059C30.0491 35.589 29.0075 40.0788 27.5555 44.4796C27.285 45.2976 28.5926 45.6488 28.8587 44.8353C30.3106 40.4344 31.3522 35.9447 31.988 31.3615C32.1053 30.5169 30.8021 30.1569 30.6849 31.0059Z" fill="#46A358"/>
</g>
<g id="Group_5">
<path id="Vector_4" d="M14.5059 43.9729C14.3301 40.4433 11.8455 38.0606 8.98673 36.247C7.13346 35.069 5.10434 34.0865 3.5126 32.5529C2.82721 31.895 1.55111 30.6192 1.48348 29.5968C1.25351 26.1872 5.4786 28.8411 6.4165 29.6279C7.07484 30.1836 8.0353 29.2412 7.37245 28.6855C5.89795 27.4453 3.25107 25.8316 1.22645 26.7651C-0.405863 27.5164 -0.135313 29.379 0.491461 30.7215C3.12932 36.4248 12.806 37.0782 13.1532 43.9729C13.1938 44.8264 14.551 44.8308 14.5059 43.9729Z" fill="#46A358"/>
</g>
<g id="Group_6">
<path id="Vector_5" d="M44.8391 45.2931C46.5256 42.786 48.7486 40.7367 51.4721 39.3587C53.9522 38.1051 57.0274 37.8873 59.2234 36.1136C61.744 34.0776 61.8748 29.0856 57.7038 29.2145C56.8335 29.2412 56.8335 30.5747 57.7038 30.5481C59.3496 30.7703 60.017 31.6683 59.7149 33.2375C59.3767 34.1399 58.804 34.8511 57.9969 35.3668C57.0094 36.0558 55.8099 36.3714 54.6736 36.727C53.2262 37.1805 51.8148 37.6561 50.4756 38.3674C47.6889 39.8521 45.4118 42.0303 43.6668 44.6219C43.1843 45.3376 44.3567 46.0044 44.8391 45.2931Z" fill="#46A358"/>
</g>
<g id="Group_7">
<path id="Vector_6" d="M48.5141 33.5619C42.7829 34.6288 40.6681 40.2521 39.3109 45.173C39.0809 46.0043 40.3886 46.3555 40.614 45.5287C41.8495 41.0523 43.6307 35.8246 48.8748 34.8511C49.7271 34.6866 49.3663 33.4019 48.5141 33.5619Z" fill="#46A358"/>
</g>
<g id="Group_8">
<path id="Vector_7" d="M18.2937 13.2647C17.6218 10.602 18.4605 7.68585 20.6339 5.89884C21.0713 5.52099 21.5673 5.23205 22.1129 5.03201C23.6145 5.34762 24.3134 6.13889 24.2097 7.4058C24.2368 8.14372 24.0925 8.87275 23.9166 9.584C23.5604 11.0198 22.9336 12.3845 22.4692 13.7893C21.2742 17.4077 19.5562 23.3244 22.7848 26.405C23.0959 26.7029 23.5784 26.2317 23.2628 25.9338C20.431 23.2355 21.883 18.0479 22.8524 14.8161C23.6911 12.0156 25.9683 8.29486 24.4307 5.35207C23.2312 3.05829 20.4806 4.92087 19.3127 6.26336C17.5857 8.25041 17.0041 10.922 17.6398 13.4425C17.7481 13.8604 18.3974 13.6826 18.2937 13.2647Z" fill="#46A358"/>
</g>
<g id="Group_9">
<path id="Vector_8" d="M32.5877 24.0623C32.9755 23.2133 33.7601 22.0131 34.8107 21.8708C36.4115 21.653 37.2367 23.6356 36.3799 24.947C35.5728 26.1827 34.0352 27.0451 32.7095 27.5741C30.5045 28.4499 29.0255 29.659 27.4247 31.3882C27.1316 31.7038 27.6096 32.1795 27.9027 31.8594C28.8722 30.8059 29.8642 29.7123 31.1268 28.9833C32.1323 28.401 33.3002 28.1742 34.3102 27.6052C35.5412 26.9073 37.5343 25.4004 37.6786 23.8801C37.7958 22.6532 36.4837 21.2307 35.2572 21.1551C33.7782 21.0618 32.5426 22.5554 32.006 23.7289C31.8257 24.1112 32.4119 24.4535 32.5877 24.0623Z" fill="#46A358"/>
</g>
<g id="Group_10">
<path id="Vector_9" d="M7.3003 24.8359C7.4491 23.6668 7.89551 23.2356 8.63501 23.5512C8.89654 23.5557 9.11298 23.649 9.29335 23.8313C9.64958 24.0625 9.88405 24.4047 10.096 24.7648C10.4748 25.4094 10.6506 26.1606 10.9302 26.8452C11.2864 27.7254 11.7554 28.4411 12.5625 28.9656C12.9277 29.2057 13.2659 28.6278 12.9052 28.3877C10.9212 27.0897 11.4758 23.7202 8.99575 22.9022C7.50772 22.4132 6.01068 23.6846 6.71862 25.1693C6.90349 25.5605 7.48517 25.2227 7.3003 24.8359Z" fill="#46A358"/>
</g>
<g id="Group_11">
<path id="Vector_10" d="M31.5326 7.58367C31.1809 5.66329 33.2325 4.13411 34.8017 5.53438C35.6675 6.30786 36.0012 7.73036 36.0057 8.84169C36.0147 10.3486 35.3158 11.6956 35.6134 13.207C35.6945 13.6293 36.3484 13.4515 36.2672 13.0292C35.8929 11.131 36.9661 9.31289 36.4836 7.34362C36.1951 6.16561 35.6089 4.85425 34.3733 4.40972C32.1458 3.61401 30.509 5.73887 30.8787 7.75703C30.9599 8.17934 31.6092 8.00152 31.5326 7.58367Z" fill="#46A358"/>
</g>
<g id="Group_12">
<path id="Vector_11" d="M31.1944 11.98C32.2946 14.2604 32.8357 16.2608 32.7546 18.7902C32.741 19.2214 33.4174 19.2169 33.4309 18.7902C33.5166 16.1319 32.9304 14.0293 31.7806 11.6466C31.5912 11.2598 31.0095 11.5977 31.1944 11.98Z" fill="#46A358"/>
</g>
<g id="Group_13">
<path id="Vector_12" d="M48.735 10.073C49.3888 8.60165 50.6243 7.67258 52.0538 6.97467C52.4641 6.76129 52.8879 6.58793 53.3298 6.45012C55.2372 7.09025 55.7197 7.97486 54.7773 9.11286C54.3264 9.81077 53.6725 10.4376 53.1089 11.051C50.9625 13.3848 48.6448 15.5452 46.1963 17.5634C45.8627 17.839 46.3406 18.3102 46.6743 18.0346C48.8883 16.212 50.9941 14.2739 52.9601 12.1935C54.1415 10.9443 56.4096 9.09063 55.9136 7.11692C54.9261 3.20505 48.9785 7.86817 48.1488 9.73965C47.9775 10.1264 48.5637 10.4642 48.735 10.073Z" fill="#46A358"/>
</g>
<g id="Group_14">
<path id="Vector_13" d="M44.9158 19.986C42.7559 21.5507 41.4437 23.8312 41.1957 26.4583C41.1551 26.8851 41.8315 26.8806 41.8721 26.4583C42.0976 24.0845 43.306 21.973 45.2585 20.5594C45.6057 20.3105 45.2675 19.7281 44.9158 19.986Z" fill="#46A358"/>
</g>
<g id="Group_15">
<path id="Vector_14" d="M49.195 31.1082C49.6369 30.8459 50.0788 30.5703 50.5432 30.3436C50.8949 30.1525 51.2647 30.0058 51.6525 29.9035C52.3785 29.6057 52.622 30.1614 52.3785 31.5705C51.9005 32.4996 49.3122 32.5352 48.5096 32.4863C46.503 32.3707 44.6137 31.8284 42.6341 32.4285C42.2193 32.5529 42.3952 33.1975 42.8145 33.073C45.1908 32.3485 47.504 33.402 49.9029 33.1397C51.2061 32.993 53.0503 32.4018 53.6996 31.1571C54.0604 30.4636 53.9747 29.5479 53.1856 29.1701C51.8915 28.5522 49.8714 29.9213 48.8523 30.5303C48.4825 30.757 48.8207 31.3349 49.195 31.1082Z" fill="#46A358"/>
</g>
<g id="Group_16">
<path id="Vector_15" d="M39.1395 33.5886C35.6224 36.4025 34.3417 40.67 33.9855 44.973C33.9495 45.3998 34.6258 45.3998 34.6619 44.973C35.0046 40.8345 36.2356 36.7626 39.6175 34.0598C39.9557 33.7887 39.4732 33.3219 39.1395 33.5886Z" fill="#46A358"/>
</g>
<g id="Group_17">
<path id="Vector_16" d="M24.0022 34.7222C22.9561 36.5092 22.9877 38.4563 23.2176 40.4567C23.4115 42.137 23.6325 43.7862 24.8094 45.0931C25.098 45.4132 25.5759 44.942 25.2873 44.6219C24.133 43.3417 23.9887 41.5635 23.8354 39.9277C23.6731 38.2251 23.6956 36.5759 24.5884 35.0556C24.8049 34.6867 24.2232 34.3533 24.0022 34.7222Z" fill="#46A358"/>
</g>
<g id="Group_18">
<path id="Vector_17" d="M5.34334 30.3303C3.38636 30.357 4.16193 32.3885 5.20806 33.1175C6.51572 34.0288 8.00374 34.6378 9.39257 35.4068C11.0294 36.3137 11.6877 37.8428 12.9458 39.1186C13.2479 39.4254 13.7259 38.9542 13.4238 38.6474C12.1747 37.3805 11.5705 35.8647 9.96072 34.9578C9.14907 34.5 8.29684 34.1132 7.48068 33.6732C7.05682 33.4464 6.63296 33.2197 6.22713 32.9663C6.0648 32.8686 5.89796 32.7663 5.73563 32.6685C4.92849 32.3662 4.80224 31.8106 5.34784 31.0015C5.77621 30.9926 5.77622 30.3258 5.34334 30.3303Z" fill="#46A358"/>
</g>
<g id="Group_19">
<path id="Vector_18" d="M56.2383 33.402C56.2608 34.2911 55.846 34.7756 54.9848 34.8601C54.5699 35.0245 54.1596 35.1846 53.7447 35.349C53.127 35.5935 52.5047 35.838 51.887 36.0825C50.444 36.6515 48.9966 37.225 47.5536 37.794C47.1523 37.9495 47.3282 38.5986 47.734 38.4385C49.3844 37.7851 51.0347 37.1361 52.6851 36.4826C53.9071 35.9981 55.4672 35.6513 56.5539 34.8956C57.4964 34.2377 57.5234 32.873 56.2338 32.7352C55.8054 32.6863 55.8099 33.3576 56.2383 33.402Z" fill="#46A358"/>
</g>
<g id="Group_20">
<path id="Vector_19" d="M46.0025 38.7185C44.1898 40.4077 42.7604 42.3903 41.7503 44.6396C41.5745 45.0264 42.1561 45.3686 42.3365 44.9775C43.324 42.7815 44.7083 40.8433 46.4849 39.1941C46.7961 38.8963 46.3181 38.4251 46.0025 38.7185Z" fill="#46A358"/>
</g>
<g id="Group_21">
<path id="Vector_20" d="M14.5511 41.6347C15.0696 42.3904 15.4033 43.2038 15.5611 44.1018C15.6333 44.5241 16.2871 44.3463 16.215 43.924C16.0481 42.9771 15.6829 42.0925 15.1373 41.2968C14.8938 40.9456 14.3076 41.279 14.5511 41.6347Z" fill="#46A358"/>
</g>
</g>
</g>
<defs>
<clipPath id="clip0_1_2481">
<rect width="61" height="46" fill="white"/>
</clipPath>
</defs>
</svg>
